<svg width="148" height="141" viewBox="0 0 148 141" fill="none" xmlns="http://www.w3.org/2000/svg">
<circle cx="74" cy="91" r="49.5" fill="#E7D07F" stroke="#01001C"/>
<path d="M49.5 123C54.6667 121.833 68.6 120.2 83 123" stroke="black" stroke-linecap="round"/>
<circle cx="134.5" cy="101.5" r="12" fill="#E7D07F" stroke="#01001C"/>
<path d="M135.935 93.4903L133.506 100.747M131.077 108.004L133.506 100.747M133.506 100.747L137.925 102.493" stroke="black" stroke-linecap="round"/>
<mask id="path-5-inside-1_699_289" fill="white">
<path fill-rule="evenodd" clip-rule="evenodd" d="M66.6627 75.1753C75.8788 75.6213 84.4785 72.7013 91.2704 67.4967C96.191 76.0787 105.249 82.0486 115.863 82.5623C132.412 83.3633 146.477 70.5968 147.278 54.0476C148.079 37.4984 135.313 23.4334 118.764 22.6325C113.474 22.3765 108.439 23.5065 104.009 25.7029C99.2118 11.5303 86.1379 1.03007 70.2883 0.262994C55.7991 -0.438241 42.8333 7.18047 36.021 18.9164C34.6675 18.6608 33.2802 18.4953 31.8653 18.4268C15.3161 17.6259 1.25109 30.3924 0.450155 46.9415C-0.350779 63.4907 12.4157 77.5558 28.9649 78.3567C37.2138 78.7559 44.8455 75.7843 50.5251 70.6536C55.3419 73.2834 60.8133 74.8922 66.6627 75.1753Z"/>
</mask>
<path fill-rule="evenodd" clip-rule="evenodd" d="M66.6627 75.1753C75.8788 75.6213 84.4785 72.7013 91.2704 67.4967C96.191 76.0787 105.249 82.0486 115.863 82.5623C132.412 83.3633 146.477 70.5968 147.278 54.0476C148.079 37.4984 135.313 23.4334 118.764 22.6325C113.474 22.3765 108.439 23.5065 104.009 25.7029C99.2118 11.5303 86.1379 1.03007 70.2883 0.262994C55.7991 -0.438241 42.8333 7.18047 36.021 18.9164C34.6675 18.6608 33.2802 18.4953 31.8653 18.4268C15.3161 17.6259 1.25109 30.3924 0.450155 46.9415C-0.350779 63.4907 12.4157 77.5558 28.9649 78.3567C37.2138 78.7559 44.8455 75.7843 50.5251 70.6536C55.3419 73.2834 60.8133 74.8922 66.6627 75.1753Z" fill="#682500"/>
<path d="M91.2704 67.4967L92.1379 66.9993L91.5694 66.0077L90.6622 66.7029L91.2704 67.4967ZM104.009 25.7029L103.062 26.0235L103.428 27.1069L104.453 26.5988L104.009 25.7029ZM36.021 18.9164L35.8354 19.899L36.5307 20.0304L36.8859 19.4184L36.021 18.9164ZM50.5251 70.6536L51.0043 69.7759L50.3814 69.4358L49.8547 69.9115L50.5251 70.6536ZM90.6622 66.7029C84.051 71.7691 75.6822 74.6107 66.7111 74.1765L66.6144 76.1741C76.0754 76.632 84.9061 73.6335 91.8787 68.2904L90.6622 66.7029ZM115.911 81.5635C105.652 81.067 96.896 75.2979 92.1379 66.9993L90.4029 67.9941C95.486 76.8596 104.846 83.0303 115.815 83.5612L115.911 81.5635ZM146.279 53.9993C145.505 69.9968 131.909 82.3377 115.911 81.5635L115.815 83.5612C132.916 84.3888 147.449 71.1968 148.277 54.096L146.279 53.9993ZM118.715 23.6313C134.713 24.4055 147.054 38.0017 146.279 53.9993L148.277 54.096C149.105 36.9952 135.913 22.4613 118.812 21.6336L118.715 23.6313ZM104.453 26.5988C108.734 24.4762 113.601 23.3838 118.715 23.6313L118.812 21.6336C113.348 21.3692 108.143 22.5368 103.565 24.807L104.453 26.5988ZM70.2399 1.26182C85.6653 2.00837 98.3919 12.2271 103.062 26.0235L104.956 25.3823C100.032 10.8335 86.6105 0.0517725 70.3366 -0.735837L70.2399 1.26182ZM36.8859 19.4184C43.5179 7.99301 56.1386 0.579358 70.2399 1.26182L70.3366 -0.735837C55.4597 -1.45584 42.1487 6.36792 35.1562 18.4144L36.8859 19.4184ZM31.817 19.4257C33.1857 19.4919 34.5271 19.6519 35.8354 19.899L36.2066 17.9338C34.8079 17.6696 33.3748 17.4987 31.9136 17.428L31.817 19.4257ZM1.44899 46.9899C2.22322 30.9924 15.8194 18.6514 31.817 19.4257L31.9136 17.428C14.8128 16.6004 0.278956 29.7924 -0.548676 46.8932L1.44899 46.9899ZM29.0132 77.3579C13.0157 76.5836 0.674749 62.9874 1.44899 46.9899L-0.548676 46.8932C-1.37631 63.994 11.8157 78.5279 28.9165 79.3555L29.0132 77.3579ZM49.8547 69.9115C44.3634 74.8722 36.9875 77.7438 29.0132 77.3579L28.9165 79.3555C37.4401 79.768 45.3277 76.6963 51.1954 71.3956L49.8547 69.9115ZM66.7111 74.1765C61.0158 73.9008 55.6913 72.3349 51.0043 69.7759L50.0459 71.5313C54.9924 74.232 60.6108 75.8836 66.6144 76.1741L66.7111 74.1765Z" fill="#01001C" mask="url(#path-5-inside-1_699_289)"/>
<path d="M59.7234 91.2537C58 101 57.5 103 55 112.5L61.5 111" stroke="black" stroke-linecap="round"/>
<path d="M56.5 93C56.5 94.1989 55.8946 95.3917 54.6918 96.5292C53.488 97.6677 51.7192 98.716 49.492 99.6068C45.0404 101.387 38.8562 102.5 32 102.5C25.1438 102.5 18.9596 101.387 14.508 99.6068C12.2808 98.716 10.512 97.6677 9.30818 96.5292C8.10539 95.3917 7.5 94.1989 7.5 93C7.5 91.8011 8.10539 90.6083 9.30818 89.4708C10.512 88.3323 12.2808 87.284 14.508 86.3932C18.9596 84.6125 25.1438 83.5 32 83.5C38.8562 83.5 45.0404 84.6125 49.492 86.3932C51.7192 87.284 53.488 88.3323 54.6918 89.4708C55.8946 90.6083 56.5 91.8011 56.5 93Z" fill="#F9FFFA" stroke="#01001C"/>
<path d="M111.5 93C111.5 94.1989 110.895 95.3917 109.692 96.5292C108.488 97.6677 106.719 98.716 104.492 99.6068C100.04 101.387 93.8562 102.5 87 102.5C80.1438 102.5 73.9596 101.387 69.508 99.6068C67.2808 98.716 65.512 97.6677 64.3082 96.5292C63.1054 95.3917 62.5 94.1989 62.5 93C62.5 91.8011 63.1054 90.6083 64.3082 89.4708C65.512 88.3323 67.2808 87.284 69.508 86.3932C73.9596 84.6125 80.1438 83.5 87 83.5C93.8562 83.5 100.04 84.6125 104.492 86.3932C106.719 87.284 108.488 88.3323 109.692 89.4708C110.895 90.6083 111.5 91.8011 111.5 93Z" fill="#F9FFFA" stroke="#01001C"/>
<path d="M62 93H56" stroke="black"/>
</svg>
