<svg width="161" height="109" viewBox="0 0 161 109" fill="none" xmlns="http://www.w3.org/2000/svg">
<path d="M137.061 59C137.061 86.3498 115.433 108.5 88.7805 108.5C62.1275 108.5 40.5 86.3498 40.5 59C40.5 31.6502 62.1275 9.5 88.7805 9.5C115.433 9.5 137.061 31.6502 137.061 59Z" fill="#DBC67B" stroke="#01001C"/>
<path d="M160.476 65.5C160.476 72.1391 155.228 77.5 148.781 77.5C142.333 77.5 137.085 72.1391 137.085 65.5C137.085 58.8609 142.333 53.5 148.781 53.5C155.228 53.5 160.476 58.8609 160.476 65.5Z" fill="#DBC67B" stroke="#01001C"/>
<path d="M150.18 57.4903L147.811 64.7473M145.441 72.0043L147.811 64.7473M147.811 64.7473L152.121 66.4927" stroke="black" stroke-linecap="round"/>
<path d="M85 1.00005C59.4 -0.19995 45.6667 15.8334 42 24C40.3333 26.5227 48.6 31.9112 95 33.284L123 30L128.5 29L131.471 35L134 30L133 24C129 4.40009 99.3333 0.500067 85 1.00005Z" fill="#78ABC6"/>
<path d="M44 61L58.5 52L95 33.284C48.6 31.9112 40.3333 26.5227 42 24L24 30L0.662166 41.1828C7.0503 38.4299 37.4056 59.7133 44 61Z" fill="#78ABC6"/>
<path d="M128.5 62H136C139.6 53.2001 132.5 36.0834 128.5 29L95 33.284L81 40.4628C86.2 44.4628 90.1667 41.1667 92 39.5C96.8 43.1 102 41 104 39.5C110 44.7 116.167 41.6667 118.5 39.5C126.9 39.5 128.667 47.8334 128.5 52V62Z" fill="url(#paint0_linear_699_633)"/>
<path d="M75.0949 74.5398C74.8112 75.9816 75.0949 78.6922 78.4997 78.0002L78.8928 75.7698C79.4603 77.7884 81.2761 80.9604 84 77.5C85.1349 78.3651 90 79 89 74.5398M80 72C80.3333 70 81.3 64.7 82.5 59.5C83.7 54.3 78.0633 52 75.0949 51.5" stroke="black"/>
<path d="M95 52.5002C97.6667 52.5002 103.5 52.8002 105.5 54.0002M108.5 56.0002C109.667 56.6668 112 58.3002 112 59.5002M71.5 51.5002C66.6667 50.8335 58.4 51.4002 56 55.0002M63.5 54.0002V59.5002M102.5 57.5001V62.5001M71.5 91.0001C75.3333 92.1667 85.1 93.8001 93.5 91.0001" stroke="black" stroke-linecap="round"/>
<path d="M95 33.4999C78.3333 41.3333 44.8 57.6999 44 60.4999C31.3333 53.3333 5.1 39.3999 1.5 40.9999C13.6667 35.4999 38.8 24.2999 42 23.4999M95 33.4999C71 24.2999 49.6667 22.9999 42 23.4999M95 33.4999L129 28.9999M42 23.4999C44.8 16.2999 53.1667 10.1665 57 7.9999C75.4 -3.6001 104.667 2.16657 117 6.4999C131 13.6999 134.167 25.1666 134 29.9999L131 34.9999" stroke="black"/>
<path d="M142.321 73.1019C141.548 72.8293 140 72.9383 140 75.5551C140.774 76.6455 142.631 78.1719 143.869 75.5551C144.127 74.7374 144.179 73.1019 142.321 73.1019Z" fill="url(#paint1_radial_699_633)" stroke="black" stroke-linecap="round" stroke-linejoin="round"/>
<defs>
<linearGradient id="paint0_linear_699_633" x1="68.494" y1="0.936279" x2="68.494" y2="62" gradientUnits="userSpaceOnUse">
<stop offset="0.682292"/>
<stop offset="1" stop-color="#540606" stop-opacity="0"/>
</linearGradient>
<radialGradient id="paint1_radial_699_633" cx="0" cy="0" r="1" gradientUnits="userSpaceOnUse" gradientTransform="translate(142 75) rotate(90) scale(2)">
<stop offset="0.291667" stop-color="white"/>
</radialGradient>
</defs>
</svg>
