<svg width="129" height="120" viewBox="0 0 129 120" fill="none" xmlns="http://www.w3.org/2000/svg">
<path d="M105.061 70C105.061 97.3498 83.4335 119.5 56.7805 119.5C30.1275 119.5 8.5 97.3498 8.5 70C8.5 42.6502 30.1275 20.5 56.7805 20.5C83.4335 20.5 105.061 42.6502 105.061 70Z" fill="#D3C17E" stroke="#01001C"/>
<path d="M128.476 76.5C128.476 83.1391 123.228 88.5 116.781 88.5C110.333 88.5 105.085 83.1391 105.085 76.5C105.085 69.8609 110.333 64.5 116.781 64.5C123.228 64.5 128.476 69.8609 128.476 76.5Z" fill="#D3C17E" stroke="#01001C"/>
<path d="M118.18 68.4903L115.811 75.7473M113.441 83.0043L115.811 75.7473M115.811 75.7473L120.121 77.4927" stroke="black" stroke-linecap="round"/>
<path d="M32 98.5H60" stroke="black" stroke-linecap="round"/>
<path d="M105 69.9999H99.5C100.167 63.4999 99 50.4999 89 50.4999C76.5 37.9999 43.6 20.4999 12 50.4999C12.4 44.8999 8.5 45.5 6.5 46.5C4.5 47.7 2.66667 46 2 45C4.8 45.8 9.83333 28.3333 12 19.5C12.8531 17.7938 12.7017 16.9594 12.1976 16.6028C11.3746 16.749 10.7858 16.7287 10.5 16.5C11.0446 16.3444 11.7563 16.2905 12.1976 16.6028C17.1342 15.7257 30.5004 8.85692 37.5 5C37.9 4.2 35.6667 2.66656 34.5 1.99984C44.5 -1.60016 75.6667 11.8332 90 18.9998C90.8 18.5998 90.3333 15.4998 90 13.9998C98.4 15.5998 102.833 35.9998 104 45.9998C106.4 45.1998 107.667 43.3332 108 42.4998C109.2 47.6998 106.5 62.9999 105 69.9999Z" fill="url(#paint0_linear_699_305)"/>
<path d="M105 69.9999H99.5C100.167 63.4999 99 50.4999 89 50.4999C76.5 37.9999 43.6 20.4999 12 50.4999C12.4 44.8999 8.5 45.5 6.5 46.5C4.5 47.7 2.66667 46 2 45C4.8 45.8 9.83333 28.3333 12 19.5C13.6 16.3 11.6667 16.1667 10.5 16.5C12.5 18.1 29.3333 9.5 37.5 5C37.9 4.2 35.6667 2.66656 34.5 1.99984C44.5 -1.60016 75.6667 11.8332 90 18.9998C90.8 18.5998 90.3333 15.4998 90 13.9998C98.4 15.5998 102.833 35.9998 104 45.9998C106.4 45.1998 107.667 43.3332 108 42.4998C109.2 47.6998 106.5 62.9999 105 69.9999Z" stroke="#01001C" stroke-linecap="round"/>
<path d="M48.7234 65.0364C47 74.7827 46.5 76.7827 44 86.2827L50.5 84.7827" stroke="black" stroke-linecap="round"/>
<path d="M51 68.5C51.2761 68.5 51.5 68.2761 51.5 68C51.5 67.7239 51.2761 67.5 51 67.5H50.5V58.5H94.5V77.5H50.5V68.5H51ZM44.5 58.5V67.5H44C43.7239 67.5 43.5 67.7239 43.5 68C43.5 68.2761 43.7239 68.5 44 68.5H44.5V77.5H0.5V58.5H44.5Z" fill="#F9FFFA" stroke="#01001C" stroke-linecap="round"/>
<defs>
<linearGradient id="paint0_linear_699_305" x1="62" y1="24.5" x2="55.1495" y2="69.9999" gradientUnits="userSpaceOnUse">
<stop offset="0.671875" stop-color="#0C0D20"/>
<stop offset="1" stop-color="#0C0D20" stop-opacity="0"/>
</linearGradient>
</defs>
</svg>
