<svg width="129" height="114" viewBox="0 0 129 114" fill="none" xmlns="http://www.w3.org/2000/svg">
<path d="M105.061 64C105.061 91.3498 83.4335 113.5 56.7805 113.5C30.1275 113.5 8.5 91.3498 8.5 64C8.5 36.6502 30.1275 14.5 56.7805 14.5C83.4335 14.5 105.061 36.6502 105.061 64Z" fill="#BC9F37" stroke="#01001C"/>
<path d="M128.476 70.5C128.476 77.1391 123.228 82.5 116.781 82.5C110.333 82.5 105.085 77.1391 105.085 70.5C105.085 63.8609 110.333 58.5 116.781 58.5C123.228 58.5 128.476 63.8609 128.476 70.5Z" fill="#BC9F37" stroke="#01001C"/>
<path d="M118.18 62.4903L115.811 69.7473M113.441 77.0043L115.811 69.7473M115.811 69.7473L120.121 71.4927" stroke="black" stroke-linecap="round"/>
<mask id="path-4-inside-1_699_313" fill="white">
<path fill-rule="evenodd" clip-rule="evenodd" d="M73.1773 7.27242C72.7208 5.8871 71.5534 4.75895 69.8988 4.31863C68.8353 4.03563 67.7239 4.07757 66.6967 4.38106C66.0594 1.83395 63.8943 -0.029639 61.3484 0.000356975C59.5639 0.0213807 57.9926 0.967892 57.0175 2.4141C56.0954 1.68325 54.956 1.25716 53.7279 1.27163C52.4484 1.2867 51.2785 1.77759 50.3594 2.58734C50.0414 2.52895 49.7143 2.50036 49.3807 2.50429C47.6305 2.52491 46.0854 3.43581 45.1067 4.83525C44.2398 3.91856 43.0979 3.35539 41.8405 3.33922C39.5071 3.30923 37.5228 5.17273 36.9386 7.71975C35.9972 7.41631 34.9787 7.37441 34.0041 7.65738C33.1611 7.90216 32.456 8.35949 31.9242 8.95539C30.4524 7.73418 28.5619 7 26.5 7C21.8056 7 18 10.8056 18 15.5C18 15.6072 18.002 15.7139 18.0059 15.8202C17.6717 15.9748 17.3595 16.1685 17.0761 16.3974C16.2635 16.1393 15.398 16 14.5 16C9.80558 16 6 19.8056 6 24.5C6 26.5846 6.75041 28.4939 7.99584 29.9726C7.97536 30.0406 7.95608 30.1097 7.93804 30.1797C7.86531 30.4621 7.8158 30.7485 7.78821 31.0359C7.05074 31.5774 6.47488 32.4266 6.19584 33.5099C5.92806 34.5495 5.97497 35.6442 6.27235 36.6445C5.09545 37.045 4.12908 38.1004 3.73995 39.6111C3.48985 40.5821 3.51425 41.6012 3.76085 42.5464C1.59882 43.0977 0 45.058 0 47.3917C0 49.0273 0.785378 50.4795 1.99959 51.3917C1.37193 52.2274 1 53.2661 1 54.3917C1 55.5645 1.40383 56.6431 2.08003 57.4958C2.02745 57.7865 2 58.0859 2 58.3917C2 61.1531 4.23858 63.3917 7 63.3917C7.581 63.3917 8.13885 63.2926 8.65758 63.1104C9.54325 63.9069 10.715 64.3917 12 64.3917C14.7614 64.3917 17 62.1531 17 59.3917C17 58.363 16.6894 57.4069 16.1568 56.612C18.4714 55.0934 20 52.4752 20 49.5C20 48.7172 19.8942 47.9592 19.6961 47.2394C20.0739 47.1199 20.4435 46.9533 20.7969 46.7376C23.1539 45.299 23.8985 42.2219 22.4599 39.8649C22.2671 39.549 22.0449 39.2621 21.7989 39.0055C22.2572 38.6 22.6274 38.1218 22.9026 37.5995C23.2834 37.8091 23.6938 37.9759 24.1282 38.0915C25.821 38.5416 27.4739 38.1046 28.593 37.0717C29.6891 38.2575 31.2578 39 33 39C36.3137 39 39 36.3137 39 33C39 32.0315 38.7705 31.1165 38.363 30.3066C39.3167 29.89 40.1717 29.129 40.7809 28.0638C42.1287 30.9781 45.0782 33 48.5 33C50.2386 33 51.8553 32.478 53.2019 31.5822C54.9446 33.6709 57.5671 35 60.5 35C63.7404 35 66.6019 33.3776 68.3164 30.9009C69.5516 31.6006 70.9791 32 72.5 32C72.5848 32 72.6692 31.9988 72.7534 31.9963C72.2695 33.0646 72 34.2508 72 35.5C72 40.1944 75.8056 44 80.5 44C81.7604 44 82.9567 43.7257 84.0325 43.2335C84.1222 43.2906 84.2143 43.3457 84.3088 43.3985C84.3842 43.4407 84.4604 43.4811 84.5372 43.5196C84.1899 44.447 84 45.4513 84 46.5C84 49.8873 85.9813 52.8118 88.8482 54.1778C88.5925 54.7568 88.4517 55.3898 88.4517 56.0528C88.4517 58.8143 90.8941 61.0528 93.907 61.0528C95.2842 61.0528 96.5421 60.5852 97.5021 59.8137C97.1805 60.4741 97 61.216 97 62C97 64.7615 99.2386 67 102 67C103.285 67 104.457 66.5153 105.342 65.7187C105.861 65.9009 106.419 66 107 66C109.761 66 112 63.7614 112 61C112 60.6942 111.973 60.3948 111.92 60.1042C112.596 59.2514 113 58.1729 113 57C113 55.8744 112.628 54.8357 112 54.0001C113.215 53.0879 114 51.6357 114 50C114 47.6663 112.401 45.706 110.239 45.1548C110.486 44.2095 110.51 43.1904 110.26 42.2195C109.871 40.7088 108.905 39.6534 107.728 39.2528C108.025 38.2526 108.072 37.1578 107.804 36.1182C107.525 35.0349 106.949 34.1858 106.212 33.6443C106.184 33.3568 106.135 33.0704 106.062 32.7881C105.658 31.2214 104.634 30.1443 103.398 29.7796C103.409 29.7336 103.419 29.6873 103.429 29.6408C103.737 28.196 103.503 26.7884 102.88 25.7195C103.593 24.4762 104 23.0357 104 21.5C104 16.8056 100.194 13 95.5 13C93.7536 13 92.1302 13.5267 90.78 14.4299C90.9239 13.8099 91 13.1638 91 12.5C91 7.80558 87.1944 4 82.5 4C79.8945 4 77.5629 5.17227 76.0037 7.01816C75.0494 6.87153 74.0766 6.97099 73.1773 7.27242Z"/>
</mask>
<path fill-rule="evenodd" clip-rule="evenodd" d="M73.1773 7.27242C72.7208 5.8871 71.5534 4.75895 69.8988 4.31863C68.8353 4.03563 67.7239 4.07757 66.6967 4.38106C66.0594 1.83395 63.8943 -0.029639 61.3484 0.000356975C59.5639 0.0213807 57.9926 0.967892 57.0175 2.4141C56.0954 1.68325 54.956 1.25716 53.7279 1.27163C52.4484 1.2867 51.2785 1.77759 50.3594 2.58734C50.0414 2.52895 49.7143 2.50036 49.3807 2.50429C47.6305 2.52491 46.0854 3.43581 45.1067 4.83525C44.2398 3.91856 43.0979 3.35539 41.8405 3.33922C39.5071 3.30923 37.5228 5.17273 36.9386 7.71975C35.9972 7.41631 34.9787 7.37441 34.0041 7.65738C33.1611 7.90216 32.456 8.35949 31.9242 8.95539C30.4524 7.73418 28.5619 7 26.5 7C21.8056 7 18 10.8056 18 15.5C18 15.6072 18.002 15.7139 18.0059 15.8202C17.6717 15.9748 17.3595 16.1685 17.0761 16.3974C16.2635 16.1393 15.398 16 14.5 16C9.80558 16 6 19.8056 6 24.5C6 26.5846 6.75041 28.4939 7.99584 29.9726C7.97536 30.0406 7.95608 30.1097 7.93804 30.1797C7.86531 30.4621 7.8158 30.7485 7.78821 31.0359C7.05074 31.5774 6.47488 32.4266 6.19584 33.5099C5.92806 34.5495 5.97497 35.6442 6.27235 36.6445C5.09545 37.045 4.12908 38.1004 3.73995 39.6111C3.48985 40.5821 3.51425 41.6012 3.76085 42.5464C1.59882 43.0977 0 45.058 0 47.3917C0 49.0273 0.785378 50.4795 1.99959 51.3917C1.37193 52.2274 1 53.2661 1 54.3917C1 55.5645 1.40383 56.6431 2.08003 57.4958C2.02745 57.7865 2 58.0859 2 58.3917C2 61.1531 4.23858 63.3917 7 63.3917C7.581 63.3917 8.13885 63.2926 8.65758 63.1104C9.54325 63.9069 10.715 64.3917 12 64.3917C14.7614 64.3917 17 62.1531 17 59.3917C17 58.363 16.6894 57.4069 16.1568 56.612C18.4714 55.0934 20 52.4752 20 49.5C20 48.7172 19.8942 47.9592 19.6961 47.2394C20.0739 47.1199 20.4435 46.9533 20.7969 46.7376C23.1539 45.299 23.8985 42.2219 22.4599 39.8649C22.2671 39.549 22.0449 39.2621 21.7989 39.0055C22.2572 38.6 22.6274 38.1218 22.9026 37.5995C23.2834 37.8091 23.6938 37.9759 24.1282 38.0915C25.821 38.5416 27.4739 38.1046 28.593 37.0717C29.6891 38.2575 31.2578 39 33 39C36.3137 39 39 36.3137 39 33C39 32.0315 38.7705 31.1165 38.363 30.3066C39.3167 29.89 40.1717 29.129 40.7809 28.0638C42.1287 30.9781 45.0782 33 48.5 33C50.2386 33 51.8553 32.478 53.2019 31.5822C54.9446 33.6709 57.5671 35 60.5 35C63.7404 35 66.6019 33.3776 68.3164 30.9009C69.5516 31.6006 70.9791 32 72.5 32C72.5848 32 72.6692 31.9988 72.7534 31.9963C72.2695 33.0646 72 34.2508 72 35.5C72 40.1944 75.8056 44 80.5 44C81.7604 44 82.9567 43.7257 84.0325 43.2335C84.1222 43.2906 84.2143 43.3457 84.3088 43.3985C84.3842 43.4407 84.4604 43.4811 84.5372 43.5196C84.1899 44.447 84 45.4513 84 46.5C84 49.8873 85.9813 52.8118 88.8482 54.1778C88.5925 54.7568 88.4517 55.3898 88.4517 56.0528C88.4517 58.8143 90.8941 61.0528 93.907 61.0528C95.2842 61.0528 96.5421 60.5852 97.5021 59.8137C97.1805 60.4741 97 61.216 97 62C97 64.7615 99.2386 67 102 67C103.285 67 104.457 66.5153 105.342 65.7187C105.861 65.9009 106.419 66 107 66C109.761 66 112 63.7614 112 61C112 60.6942 111.973 60.3948 111.92 60.1042C112.596 59.2514 113 58.1729 113 57C113 55.8744 112.628 54.8357 112 54.0001C113.215 53.0879 114 51.6357 114 50C114 47.6663 112.401 45.706 110.239 45.1548C110.486 44.2095 110.51 43.1904 110.26 42.2195C109.871 40.7088 108.905 39.6534 107.728 39.2528C108.025 38.2526 108.072 37.1578 107.804 36.1182C107.525 35.0349 106.949 34.1858 106.212 33.6443C106.184 33.3568 106.135 33.0704 106.062 32.7881C105.658 31.2214 104.634 30.1443 103.398 29.7796C103.409 29.7336 103.419 29.6873 103.429 29.6408C103.737 28.196 103.503 26.7884 102.88 25.7195C103.593 24.4762 104 23.0357 104 21.5C104 16.8056 100.194 13 95.5 13C93.7536 13 92.1302 13.5267 90.78 14.4299C90.9239 13.8099 91 13.1638 91 12.5C91 7.80558 87.1944 4 82.5 4C79.8945 4 77.5629 5.17227 76.0037 7.01816C75.0494 6.87153 74.0766 6.97099 73.1773 7.27242Z" fill="#1F1000"/>
<path d="M69.8988 4.31863L69.6416 5.285L69.6416 5.285L69.8988 4.31863ZM73.1773 7.27242L72.2276 7.58539L72.5421 8.53999L73.4951 8.22058L73.1773 7.27242ZM66.6967 4.38106L65.7266 4.62378L65.9798 5.63562L66.9801 5.34008L66.6967 4.38106ZM61.3484 0.000356975L61.3366 -0.999574L61.3484 0.000356975ZM57.0175 2.4141L56.3964 3.19779L57.2428 3.86869L57.8466 2.97314L57.0175 2.4141ZM53.7279 1.27163L53.7397 2.27156L53.7279 1.27163ZM50.3594 2.58734L50.1788 3.5709L50.6562 3.65855L51.0205 3.33768L50.3594 2.58734ZM49.3807 2.50429L49.3925 3.50422L49.3925 3.50422L49.3807 2.50429ZM45.1067 4.83525L44.3801 5.52235L45.2231 6.41371L45.9262 5.40835L45.1067 4.83525ZM41.8405 3.33922L41.8534 2.33931L41.8534 2.33931L41.8405 3.33922ZM36.9386 7.71975L36.6318 8.67153L37.6696 9.00602L37.9133 7.94329L36.9386 7.71975ZM34.0041 7.65738L33.7253 6.69704L33.7253 6.69704L34.0041 7.65738ZM31.9242 8.95539L31.2856 9.72497L32.028 10.3409L32.6703 9.62125L31.9242 8.95539ZM18.0059 15.8202L18.4257 16.7278L19.0299 16.4484L19.0052 15.7832L18.0059 15.8202ZM17.0761 16.3974L16.7734 17.3505L17.286 17.5133L17.7044 17.1753L17.0761 16.3974ZM7.99584 29.9726L8.95341 30.2608L9.10944 29.7424L8.76069 29.3284L7.99584 29.9726ZM7.93804 30.1797L8.90643 30.4292L8.90643 30.4292L7.93804 30.1797ZM7.78821 31.0359L8.38006 31.842L8.74087 31.577L8.78364 31.1315L7.78821 31.0359ZM6.19584 33.5099L5.22745 33.2604L5.22745 33.2604L6.19584 33.5099ZM6.27235 36.6445L6.59456 37.5911L7.50494 37.2813L7.23088 36.3595L6.27235 36.6445ZM3.73995 39.6111L4.70834 39.8606L4.70834 39.8606L3.73995 39.6111ZM3.76085 42.5464L4.00793 43.5154L4.9823 43.267L4.72847 42.294L3.76085 42.5464ZM1.99959 51.3917L2.79917 51.9923L3.39967 51.1928L2.60025 50.5922L1.99959 51.3917ZM2.08003 57.4958L3.06406 57.6738L3.14455 57.2288L2.86358 56.8745L2.08003 57.4958ZM8.65758 63.1104L9.3263 62.3669L8.88551 61.9704L8.32616 62.1669L8.65758 63.1104ZM16.1568 56.612L15.6082 55.7759L14.764 56.3298L15.326 57.1687L16.1568 56.612ZM19.6961 47.2394L19.3946 46.2859L18.4764 46.5762L18.7319 47.5047L19.6961 47.2394ZM20.7969 46.7376L20.2759 45.884L20.2759 45.884L20.7969 46.7376ZM22.4599 39.8649L21.6063 40.3858L21.6063 40.3858L22.4599 39.8649ZM21.7989 39.0055L21.1362 38.2567L20.3569 38.9463L21.077 39.6976L21.7989 39.0055ZM22.9026 37.5995L23.3847 36.7234L22.4925 36.2324L22.0178 37.1334L22.9026 37.5995ZM24.1282 38.0915L23.8712 39.0579L23.8712 39.0579L24.1282 38.0915ZM28.593 37.0717L29.3273 36.3929L28.649 35.6591L27.9147 36.3369L28.593 37.0717ZM38.363 30.3066L37.9626 29.3902L36.9951 29.8129L37.4697 30.7561L38.363 30.3066ZM40.7809 28.0638L41.6886 27.6441L40.875 25.8849L39.9129 27.5674L40.7809 28.0638ZM53.2019 31.5822L53.9698 30.9416L53.3951 30.2527L52.6481 30.7496L53.2019 31.5822ZM68.3164 30.9009L68.8093 30.0308L68.0143 29.5804L67.4942 30.3317L68.3164 30.9009ZM72.7534 31.9963L73.6643 32.4089L74.3253 30.9498L72.7242 30.9967L72.7534 31.9963ZM84.0325 43.2335L84.5699 42.3901L84.1111 42.0978L83.6165 42.3241L84.0325 43.2335ZM84.3088 43.3985L84.797 42.5258L84.797 42.5258L84.3088 43.3985ZM84.5372 43.5196L85.4737 43.8703L85.789 43.0284L84.9853 42.6256L84.5372 43.5196ZM88.8482 54.1778L89.763 54.5818L90.1556 53.693L89.2784 53.275L88.8482 54.1778ZM97.5021 59.8137L98.4012 60.2515L96.8757 59.0342L97.5021 59.8137ZM105.342 65.7187L105.674 64.7752L105.115 64.5788L104.674 64.9752L105.342 65.7187ZM111.92 60.1042L111.136 59.4829L110.855 59.8372L110.936 60.2822L111.92 60.1042ZM112 54.0001L111.4 53.2006L110.6 53.8012L111.201 54.6007L112 54.0001ZM110.239 45.1548L109.272 44.9023L109.018 45.8753L109.992 46.1238L110.239 45.1548ZM110.26 42.2195L111.228 41.97L111.228 41.97L110.26 42.2195ZM107.728 39.2528L106.769 38.9678L106.495 39.8896L107.405 40.1995L107.728 39.2528ZM107.804 36.1182L106.836 36.3677L106.836 36.3677L107.804 36.1182ZM106.212 33.6443L105.216 33.7398L105.259 34.1854L105.62 34.4503L106.212 33.6443ZM106.062 32.7881L107.03 32.5386L107.03 32.5386L106.062 32.7881ZM103.398 29.7796L102.425 29.5486L102.206 30.4705L103.115 30.7387L103.398 29.7796ZM103.429 29.6408L104.407 29.8496L104.407 29.8496L103.429 29.6408ZM102.88 25.7195L102.013 25.2224L101.726 25.7236L102.016 26.2228L102.88 25.7195ZM90.78 14.4299L89.8059 14.2037L89.234 16.6672L91.336 15.2611L90.78 14.4299ZM76.0037 7.01816L75.8518 8.00656L76.4059 8.09169L76.7676 7.66345L76.0037 7.01816ZM69.6416 5.285C70.9899 5.64381 71.8831 6.54013 72.2276 7.58539L74.1271 6.95944C73.5585 5.23408 72.1168 3.87409 70.1559 3.35226L69.6416 5.285ZM66.9801 5.34008C67.8455 5.08437 68.7695 5.05292 69.6416 5.285L70.1559 3.35226C68.9011 3.01835 67.6023 3.07076 66.4134 3.42204L66.9801 5.34008ZM61.3601 1.00029C63.3824 0.976462 65.1864 2.46449 65.7266 4.62378L67.6668 4.13833C66.9325 1.20341 64.4063 -1.03574 61.3366 -0.999574L61.3601 1.00029ZM57.8466 2.97314C58.6579 1.76998 59.9377 1.01705 61.3601 1.00029L61.3366 -0.999574C59.1901 -0.974285 57.3273 0.165806 56.1884 1.85505L57.8466 2.97314ZM53.7397 2.27156C54.7227 2.25998 55.6416 2.59957 56.3964 3.19779L57.6386 1.6304C56.5492 0.766925 55.1893 0.254339 53.7161 0.271695L53.7397 2.27156ZM51.0205 3.33768C51.7728 2.67484 52.7161 2.28362 53.7397 2.27156L53.7161 0.271695C52.1808 0.289784 50.7842 0.880348 49.6984 1.837L51.0205 3.33768ZM49.3925 3.50422C49.6611 3.50106 49.9238 3.52407 50.1788 3.5709L50.54 1.60378C50.1591 1.53384 49.7676 1.49966 49.3689 1.50436L49.3925 3.50422ZM45.9262 5.40835C46.7396 4.24527 47.997 3.52066 49.3925 3.50422L49.3689 1.50436C47.264 1.52916 45.4312 2.62635 44.2872 4.26214L45.9262 5.40835ZM41.8277 4.33914C42.7809 4.3514 43.6745 4.77625 44.3801 5.52235L45.8332 4.14815C44.805 3.06086 43.4148 2.35938 41.8534 2.33931L41.8277 4.33914ZM37.9133 7.94329C38.4203 5.73294 40.0803 4.31668 41.8277 4.33914L41.8534 2.33931C38.934 2.30178 36.6253 4.61252 35.9639 7.4962L37.9133 7.94329ZM34.2829 8.61772C35.0504 8.39488 35.8645 8.4242 36.6318 8.67153L37.2454 6.76797C36.1299 6.40842 34.907 6.35393 33.7253 6.69704L34.2829 8.61772ZM32.6703 9.62125C33.0771 9.16539 33.6202 8.81013 34.2829 8.61772L33.7253 6.69704C32.7019 6.99418 31.8349 7.55358 31.1781 8.28953L32.6703 9.62125ZM26.5 8C28.3202 8 29.9866 8.64716 31.2856 9.72497L32.5627 8.1858C30.9181 6.82121 28.8036 6 26.5 6V8ZM19 15.5C19 11.3579 22.3579 8 26.5 8V6C21.2533 6 17 10.2533 17 15.5H19ZM19.0052 15.7832C19.0018 15.6893 19 15.5949 19 15.5H17C17 15.6196 17.0022 15.7386 17.0066 15.8572L19.0052 15.7832ZM17.7044 17.1753C17.9231 16.9987 18.1651 16.8483 18.4257 16.7278L17.5862 14.9126C17.1783 15.1012 16.7959 15.3382 16.4478 15.6194L17.7044 17.1753ZM14.5 17C15.2941 17 16.0575 17.1231 16.7734 17.3505L17.3788 15.4443C16.4695 15.1555 15.502 15 14.5 15V17ZM7 24.5C7 20.3579 10.3579 17 14.5 17V15C9.2533 15 5 19.2533 5 24.5H7ZM8.76069 29.3284C7.66144 28.0233 7 26.3402 7 24.5H5C5 26.829 5.83938 28.9646 7.23099 30.6168L8.76069 29.3284ZM8.90643 30.4292C8.92114 30.372 8.93682 30.3159 8.95341 30.2608L7.03828 29.6844C7.0139 29.7654 6.99101 29.8474 6.96965 29.9303L8.90643 30.4292ZM8.78364 31.1315C8.80639 30.8944 8.8471 30.6595 8.90643 30.4292L6.96965 29.9303C6.88352 30.2646 6.82521 30.6026 6.79278 30.9404L8.78364 31.1315ZM7.16423 33.7593C7.39175 32.8761 7.84713 32.2333 8.38006 31.842L7.19636 30.2299C6.25435 30.9215 5.55802 31.9771 5.22745 33.2604L7.16423 33.7593ZM7.23088 36.3595C6.9809 35.5187 6.94535 34.6091 7.16423 33.7593L5.22745 33.2604C4.91077 34.4899 4.96903 35.7697 5.31382 36.9294L7.23088 36.3595ZM4.70834 39.8606C5.02563 38.6288 5.78066 37.8681 6.59456 37.5911L5.95014 35.6978C4.41023 36.2219 3.23254 37.5721 2.77156 39.3617L4.70834 39.8606ZM4.72847 42.294C4.52127 41.4998 4.50399 40.6539 4.70834 39.8606L2.77156 39.3617C2.47571 40.5103 2.50724 41.7025 2.79324 42.7988L4.72847 42.294ZM1 47.3917C1 45.5261 2.27811 43.9565 4.00793 43.5154L3.51378 41.5774C0.919523 42.2389 -1 44.5899 -1 47.3917H1ZM2.60025 50.5922C1.62662 49.8608 1 48.6995 1 47.3917H-1C-1 49.3551 -0.0558696 51.0983 1.39894 52.1912L2.60025 50.5922ZM2 54.3917C2 53.4901 2.29711 52.6607 2.79917 51.9923L1.20002 50.7912C0.446754 51.794 0 53.0421 0 54.3917H2ZM2.86358 56.8745C2.32251 56.1922 2 55.331 2 54.3917H0C0 55.7981 0.485146 57.094 1.29647 58.1172L2.86358 56.8745ZM3 58.3917C3 58.1458 3.02206 57.906 3.06406 57.6738L1.096 57.3178C1.03285 57.6669 1 58.0259 1 58.3917H3ZM7 62.3917C4.79086 62.3917 3 60.6008 3 58.3917H1C1 61.7054 3.68629 64.3917 7 64.3917V62.3917ZM8.32616 62.1669C7.91246 62.3122 7.46659 62.3917 7 62.3917V64.3917C7.69542 64.3917 8.36524 64.273 8.98899 64.0539L8.32616 62.1669ZM12 63.3917C10.9714 63.3917 10.0355 63.0047 9.3263 62.3669L7.98886 63.8539C9.05098 64.8092 10.4586 65.3917 12 65.3917V63.3917ZM16 59.3917C16 61.6008 14.2091 63.3917 12 63.3917V65.3917C15.3137 65.3917 18 62.7054 18 59.3917H16ZM15.326 57.1687C15.7517 57.804 16 58.5673 16 59.3917H18C18 58.1587 17.627 57.0098 16.9875 56.0554L15.326 57.1687ZM19 49.5C19 52.1242 17.6531 54.4343 15.6082 55.7759L16.7053 57.4481C19.2898 55.7525 21 52.8262 21 49.5H19ZM18.7319 47.5047C18.9065 48.1389 19 48.8077 19 49.5H21C21 48.6267 20.8819 47.7795 20.6603 46.974L18.7319 47.5047ZM20.2759 45.884C19.9919 46.0574 19.6961 46.1906 19.3946 46.2859L19.9976 48.1928C20.4517 48.0492 20.8951 47.8492 21.3178 47.5912L20.2759 45.884ZM21.6063 40.3858C22.7572 42.2715 22.1616 44.7331 20.2759 45.884L21.3178 47.5912C24.1463 45.8648 25.0398 42.1724 23.3134 39.3439L21.6063 40.3858ZM21.077 39.6976C21.2734 39.9024 21.4514 40.132 21.6063 40.3858L23.3134 39.3439C23.0828 38.966 22.8164 38.6219 22.5208 38.3135L21.077 39.6976ZM22.0178 37.1334C21.7978 37.5511 21.5021 37.9329 21.1362 38.2567L22.4617 39.7544C23.0123 39.2672 23.457 38.6926 23.7873 38.0656L22.0178 37.1334ZM24.3852 37.125C24.031 37.0308 23.696 36.8947 23.3847 36.7234L22.4204 38.4756C22.8708 38.7234 23.3567 38.921 23.8712 39.0579L24.3852 37.125ZM27.9147 36.3369C27.0571 37.1284 25.7605 37.4908 24.3852 37.125L23.8712 39.0579C25.8815 39.5925 27.8907 39.0808 29.2713 37.8065L27.9147 36.3369ZM33 38C31.5482 38 30.2421 37.3825 29.3273 36.3929L27.8586 37.7505C29.1361 39.1325 30.9675 40 33 40V38ZM38 33C38 35.7614 35.7614 38 33 38V40C36.866 40 40 36.866 40 33H38ZM37.4697 30.7561C37.8087 31.4298 38 32.1911 38 33H40C40 31.8718 39.7324 30.8033 39.2562 29.8571L37.4697 30.7561ZM39.9129 27.5674C39.4026 28.4596 38.7055 29.0657 37.9626 29.3902L38.7633 31.223C39.9279 30.7143 40.9408 29.7985 41.649 28.5603L39.9129 27.5674ZM48.5 32C45.4823 32 42.8788 30.2177 41.6886 27.6441L39.8733 28.4836C41.3785 31.7384 44.6741 34 48.5 34V32ZM52.6481 30.7496C51.4605 31.5396 50.0355 32 48.5 32V34C50.4417 34 52.2502 33.4164 53.7558 32.4148L52.6481 30.7496ZM60.5 34C57.8761 34 55.5306 32.8123 53.9698 30.9416L52.4341 32.2228C54.3586 34.5295 57.258 36 60.5 36V34ZM67.4942 30.3317C65.9584 32.5502 63.3984 34 60.5 34V36C64.0823 36 67.2453 34.2051 69.1387 31.4701L67.4942 30.3317ZM72.5 31C71.1564 31 69.8981 30.6476 68.8093 30.0308L67.8235 31.771C69.205 32.5536 70.8019 33 72.5 33V31ZM72.7242 30.9967C72.6497 30.9989 72.575 31 72.5 31V33C72.5945 33 72.6888 32.9986 72.7827 32.9959L72.7242 30.9967ZM73 35.5C73 34.396 73.2379 33.3502 73.6643 32.4089L71.8425 31.5837C71.301 32.779 71 34.1057 71 35.5H73ZM80.5 43C76.3579 43 73 39.6421 73 35.5H71C71 40.7467 75.2533 45 80.5 45V43ZM83.6165 42.3241C82.6686 42.7578 81.614 43 80.5 43V45C81.9068 45 83.2448 44.6936 84.4486 44.1428L83.6165 42.3241ZM84.797 42.5258C84.7191 42.4822 84.6434 42.437 84.5699 42.3901L83.4951 44.0768C83.601 44.1443 83.7095 44.2091 83.8205 44.2712L84.797 42.5258ZM84.9853 42.6256C84.922 42.5938 84.8592 42.5606 84.797 42.5258L83.8205 44.2712C83.9093 44.3209 83.9989 44.3683 84.0891 44.4136L84.9853 42.6256ZM85 46.5C85 45.5729 85.1678 44.6873 85.4737 43.8703L83.6007 43.1689C83.2121 44.2068 83 45.3298 83 46.5H85ZM89.2784 53.275C86.7464 52.0686 85 49.4873 85 46.5H83C83 50.2873 85.2162 53.5549 88.4181 55.0805L89.2784 53.275ZM89.4517 56.0528C89.4517 55.5331 89.5617 55.0375 89.763 54.5818L87.9335 53.7738C87.6233 54.4761 87.4517 55.2464 87.4517 56.0528H89.4517ZM93.907 60.0528C91.3626 60.0528 89.4517 58.1817 89.4517 56.0528H87.4517C87.4517 59.4468 90.4257 62.0528 93.907 62.0528V60.0528ZM96.8757 59.0342C96.0936 59.6627 95.0567 60.0528 93.907 60.0528V62.0528C95.5116 62.0528 96.9906 61.5076 98.1285 60.5931L96.8757 59.0342ZM98 62C98 61.371 98.1445 60.7785 98.4012 60.2515L96.6031 59.3758C96.2164 60.1697 96 61.061 96 62H98ZM102 66C99.7909 66 98 64.2092 98 62H96C96 65.3137 98.6863 68 102 68V66ZM104.674 64.9752C103.964 65.6131 103.029 66 102 66V68C103.541 68 104.949 67.4175 106.011 66.4622L104.674 64.9752ZM107 65C106.533 65 106.088 64.9206 105.674 64.7752L105.011 66.6622C105.635 66.8813 106.305 67 107 67V65ZM111 61C111 63.2092 109.209 65 107 65V67C110.314 67 113 64.3137 113 61H111ZM110.936 60.2822C110.978 60.5144 111 60.7542 111 61H113C113 60.6342 112.967 60.2753 112.904 59.9262L110.936 60.2822ZM112 57C112 57.9393 111.678 58.8005 111.136 59.4829L112.704 60.7255C113.515 59.7023 114 58.4065 114 57H112ZM111.201 54.6007C111.703 55.2691 112 56.0984 112 57H114C114 55.6505 113.553 54.4024 112.8 53.3995L111.201 54.6007ZM113 50C113 51.3079 112.373 52.4691 111.4 53.2006L112.601 54.7996C114.056 53.7066 115 51.9634 115 50H113ZM109.992 46.1238C111.722 46.5648 113 48.1344 113 50H115C115 47.1982 113.081 44.8472 110.486 44.1858L109.992 46.1238ZM109.292 42.4689C109.496 43.2623 109.479 44.1081 109.272 44.9023L111.207 45.4072C111.493 44.3109 111.524 43.1186 111.228 41.97L109.292 42.4689ZM107.405 40.1995C108.219 40.4765 108.974 41.2372 109.292 42.4689L111.228 41.97C110.767 40.1804 109.59 38.8303 108.05 38.3061L107.405 40.1995ZM106.836 36.3677C107.055 37.2174 107.019 38.127 106.769 38.9678L108.686 39.5378C109.031 38.3781 109.089 37.0982 108.773 35.8688L106.836 36.3677ZM105.62 34.4503C106.153 34.8416 106.608 35.4844 106.836 36.3677L108.773 35.8688C108.442 34.5855 107.746 33.5299 106.804 32.8382L105.62 34.4503ZM105.094 33.0375C105.153 33.2678 105.194 33.5027 105.216 33.7398L107.207 33.5487C107.175 33.2109 107.116 32.873 107.03 32.5386L105.094 33.0375ZM103.115 30.7387C103.966 30.9897 104.765 31.7601 105.094 33.0375L107.03 32.5386C106.552 30.6826 105.302 29.2989 103.681 28.8204L103.115 30.7387ZM102.451 29.432C102.443 29.4711 102.434 29.5099 102.425 29.5486L104.371 30.0106C104.383 29.9572 104.395 29.9036 104.407 29.8496L102.451 29.432ZM102.016 26.2228C102.505 27.0614 102.711 28.2126 102.451 29.432L104.407 29.8496C104.764 28.1795 104.501 26.5154 103.745 25.2163L102.016 26.2228ZM103 21.5C103 22.8567 102.641 24.1264 102.013 25.2224L103.748 26.2167C104.545 24.826 105 23.2147 105 21.5H103ZM95.5 14C99.6421 14 103 17.3579 103 21.5H105C105 16.2533 100.747 12 95.5 12V14ZM91.336 15.2611C92.5268 14.4645 93.9576 14 95.5 14V12C93.5495 12 91.7336 12.5889 90.224 13.5987L91.336 15.2611ZM90 12.5C90 13.0872 89.9327 13.6573 89.8059 14.2037L91.7541 14.656C91.9151 13.9624 92 13.2405 92 12.5H90ZM82.5 5C86.6421 5 90 8.35786 90 12.5H92C92 7.2533 87.7467 3 82.5 3V5ZM76.7676 7.66345C78.1449 6.03289 80.2013 5 82.5 5V3C79.5877 3 76.9808 4.31166 75.2397 6.37287L76.7676 7.66345ZM73.4951 8.22058C74.2531 7.96654 75.0649 7.88565 75.8518 8.00656L76.1555 6.02976C75.0339 5.85742 73.9002 5.97545 72.8595 6.32426L73.4951 8.22058Z" fill="#01001C" mask="url(#path-4-inside-1_699_313)"/>
<path d="M64.5 61H80.5M45.5 61H29" stroke="black" stroke-linecap="round" stroke-linejoin="round"/>
<path d="M47.0832 76C46.7994 77.4418 47.0832 80.1524 50.488 79.4604V77.7302C51.0554 79.7487 52.8713 82.9207 55.5952 79.4604C56.7301 80.3254 59 81.1905 59 77.7302" stroke="black"/>
<path d="M36.5 90C43.5 92.8333 60.5 96.8 72.5 90" stroke="black"/>
<path d="M55.1667 82.5C55.1667 83.2364 55.7636 83.8333 56.5 83.8333C57.2364 83.8333 57.8333 83.2364 57.8333 82.5C57.8333 81.7636 57.2364 81.1667 56.5 81.1667C55.7636 81.1667 55.1667 81.7636 55.1667 82.5ZM48.1667 82C48.1667 82.7364 48.7636 83.3333 49.5 83.3333C50.2364 83.3333 50.8333 82.7364 50.8333 82C50.8333 81.2636 50.2364 80.6667 49.5 80.6667C48.7636 80.6667 48.1667 81.2636 48.1667 82ZM53 81.0001L52.8613 81.2081L52.982 81.2886L53.1118 81.2237L53 81.0001ZM56.6768 82.3232C56.467 82.1135 56.2754 81.8628 56.0543 81.5931C55.8396 81.3313 55.6015 81.0576 55.3189 80.8438C55.0322 80.6267 54.6949 80.4674 54.2835 80.4387C53.8746 80.4102 53.4163 80.5124 52.8882 80.7765L53.1118 81.2237C53.5837 80.9878 53.9522 80.9168 54.2488 80.9375C54.5428 80.958 54.7896 81.0701 55.0172 81.2424C55.249 81.4179 55.4555 81.6514 55.6676 81.9101C55.8732 82.1608 56.0904 82.4439 56.3232 82.6768L56.6768 82.3232ZM53.1387 80.7921C52.7384 80.5253 52.3651 80.3822 52.0059 80.3473C51.6448 80.3123 51.3172 80.3883 51.0128 80.5293C50.7121 80.6686 50.4318 80.8724 50.1612 81.0951C49.8965 81.3131 49.6121 81.5746 49.3373 81.8102L49.6627 82.1898C49.9617 81.9335 50.2143 81.6991 50.479 81.4811C50.7379 81.268 50.9796 81.0957 51.223 80.983C51.4626 80.872 51.7011 80.8201 51.9575 80.845C52.2158 80.8701 52.5116 80.9749 52.8613 81.2081L53.1387 80.7921Z" fill="black"/>
</svg>
