<svg width="584" height="266" viewBox="0 0 584 266" fill="none" xmlns="http://www.w3.org/2000/svg">
<path fill-rule="evenodd" clip-rule="evenodd" d="M237.557 79.0955C235.133 80.3377 232.521 81.2586 229.782 81.804C230.31 84.7166 230.585 87.7166 230.585 90.7815C230.585 91.2078 230.581 91.6326 230.57 92.0564C230.564 92.2796 230.557 92.5027 230.548 92.7249C230.522 93.4007 230.483 94.073 230.431 94.7415C232.356 91.6116 235.622 89.3948 239.428 88.8904C238.545 87.9885 238 86.7537 238 85.3914C238 85.2781 238.004 85.1658 238.011 85.055C238.024 84.8655 238.047 84.679 238.08 84.4954C237.404 83.6428 237 82.5642 237 81.3914C237 80.5637 237.201 79.783 237.557 79.0955ZM252.479 43.2307C248.772 31.658 238.202 23.0359 225.349 22.4138C220.06 22.158 215.024 23.2879 210.594 25.4846C205.797 11.3118 192.723 0.811786 176.874 0.0446964C162.385 -0.656964 149.419 6.96218 142.606 18.698C141.253 18.4422 139.866 18.2766 138.451 18.2083C123.88 17.5032 111.236 27.3147 107.874 40.9651C105.974 37.555 103.69 35.1135 101 34.6013C101.333 36.1013 101.8 39.2009 101 39.6013C86.6665 32.4343 55.5 19.0012 45.5 22.6013C46.6665 23.2678 48.8999 24.8015 48.5 25.6013C41.5005 29.4583 28.1343 36.3269 23.1978 37.2039C22.7563 36.8919 22.0444 36.9456 21.5 37.1013C21.7856 37.3299 22.3745 37.3504 23.1978 37.2039C23.7017 37.5608 23.853 38.3953 23 40.1013C20.8335 48.9348 15.7998 66.4011 13 65.6013C13.6665 66.6013 15.5 68.3015 17.5 67.1013C19.4492 66.1267 23.2036 65.532 23.022 70.6878C21.9468 73.2234 21.0708 75.8679 20.4141 78.6013H11V98.6013H19.6211C21.9419 113.393 30.5923 126.014 42.6338 133.454C17.7935 142.73 0 167.724 0 197.101C0 234.381 28.6538 264.601 64 264.601C88.6587 264.601 110.061 249.893 120.748 228.341C131.406 249.991 152.858 264.782 177.585 264.782C201.426 264.782 222.221 251.033 233.234 230.644C244.216 251.154 265.075 265 289 265C317.519 265 341.68 245.327 349.951 218.146C358.126 245.496 382.367 265.327 411 265.327C432.182 265.327 450.96 254.474 462.609 237.753C474.273 254.297 492.95 265.015 514 265.015C549.346 265.015 578 234.794 578 197.515C578 174.186 566.779 153.622 549.719 141.497C550.559 140.91 551.339 140.115 552 139.062C553.035 137.412 553.778 135.128 554 132.015C554.134 130.141 554.12 128.502 553.994 127.072C554.662 131.141 557.538 133.053 559 133.515C556.2 123.515 565.167 130.015 570 134.515C572.8 133.715 571.5 123.181 570.5 118.015C568.615 113.114 575.466 116.712 579.749 119.514C579.817 119.596 579.887 119.668 579.957 119.731C579.979 119.751 580 119.77 580.023 119.788C580.056 119.814 580.088 119.838 580.121 119.86C580.247 119.945 580.373 119.997 580.5 120.015L580.351 119.914L580.149 119.779L579.882 119.602L579.749 119.514C578.557 118.102 577.475 113.908 576.742 108.937C581.004 106.989 583.976 102.607 583.976 97.5149C583.976 92.8089 581.438 88.7102 577.689 86.5779C579.472 81.7503 572.557 74.2488 569 71.0149C570.6 65.8152 557.333 52.8484 550.5 47.0149C548.9 39.0149 535.167 38.3484 528.5 39.0149C524.1 31.0149 508 34.3484 500.5 37.0149C494.548 34.615 486.353 41.3484 483 45.0149C482.281 45.3025 481.386 45.6111 480.379 45.9578C474.385 48.0227 464.428 51.4534 464 60.0149C463.806 63.8933 464.419 65.4373 464.871 66.5755C465.481 68.1106 465.797 68.907 463.443 73.7C462.633 71.4968 461.676 69.3679 460.584 67.3255L463.429 62.5842L463.495 62.4734L463.5 62.344C463.587 59.7913 462.787 55.5252 460.114 50.9895C458.795 48.4549 456.973 46.2591 454.792 44.3631C452.519 42.2156 449.701 40.1682 446.229 38.3821L446.198 38.3665L446.166 38.3552C439.958 36.1741 429.511 33.6384 418.299 33.1023C407.1 32.5672 395.067 34.0237 385.744 39.8977C383.794 41.0008 380.718 43.0955 377.773 45.8225C374.889 48.492 372.094 51.8015 370.627 55.4119C370.355 55.4934 370 55.6155 369.57 55.7732C369.201 55.908 368.778 56.0696 368.307 56.2542C367.755 56.4705 367.136 56.719 366.46 56.9949C365.951 57.2029 365.41 57.4265 364.84 57.6638C363.571 58.1926 362.154 58.7932 360.631 59.4456C359.529 59.9173 358.372 60.4163 357.174 60.9353L353 62.3269L344.288 66.5012C344.107 66.4011 343.92 66.3181 343.728 66.2527C344.025 65.2522 344.072 64.1575 343.804 63.1179C343.64 62.4802 343.373 61.9231 343.03 61.4627C342.791 61.1409 342.515 60.8665 342.212 60.6438C342.184 60.3567 342.135 60.0701 342.062 59.7879C341.658 58.221 340.634 57.1443 339.398 56.7796L339.416 56.699L339.429 56.6404C339.737 55.1956 339.503 53.7883 338.88 52.7195C339.593 51.4758 340 50.0354 340 48.4998C340 43.8054 336.194 39.9998 331.5 39.9998C329.753 39.9998 328.13 40.5266 326.78 41.4295C326.924 40.8098 327 40.1638 327 39.4998C327 34.8054 323.194 30.9998 318.5 30.9998C315.895 30.9998 313.563 32.1721 312.003 34.0178C311.049 33.8714 310.077 33.971 309.177 34.2722C308.721 32.887 307.553 31.7586 305.899 31.3186C304.835 31.0354 303.724 31.0774 302.697 31.3806C302.06 28.8338 299.895 26.97 297.348 27.0003C295.564 27.0213 293.993 27.9675 293.018 29.4138C292.095 28.6829 290.956 28.2571 289.728 28.2713C288.448 28.2864 287.278 28.7776 286.359 29.5872C286.188 29.5554 286.014 29.533 285.838 29.5193C285.687 29.5076 285.535 29.5022 285.381 29.5042C283.63 29.5247 282.085 30.4358 281.106 31.8352C280.24 30.9182 279.098 30.3552 277.84 30.3391C275.507 30.3089 273.523 32.1726 272.938 34.7195C271.997 34.4163 270.979 34.3743 270.004 34.657C269.604 34.7732 269.234 34.9373 268.9 35.1414C268.531 35.3675 268.204 35.6424 267.924 35.9553C266.452 34.7341 264.562 33.9998 262.5 33.9998C257.806 33.9998 254 37.8054 254 42.4998C254 42.6072 254.002 42.7136 254.006 42.8201C253.672 42.9744 253.359 43.1682 253.076 43.3972C253.003 43.3738 252.93 43.3513 252.856 43.3299L252.795 43.3128C252.742 43.2981 252.689 43.2835 252.635 43.2698L252.562 43.2508L252.479 43.2307ZM464.042 107.228C459.762 120.317 450.343 130.99 438.241 136.729C447.835 141.496 456.125 148.702 462.391 157.59C469.187 147.834 478.41 140.075 489.122 135.304C481.783 131.352 475.547 125.539 471.01 118.477C470.82 120.8 470.376 122.811 470 124.015C468.5 126.181 466.2 131.615 469 136.015C468.512 135.959 467.985 135.854 467.44 135.695C467.05 135.58 466.651 135.438 466.251 135.264C466.237 135.334 466.208 135.399 466.167 135.455C466.077 135.582 465.928 135.664 465.761 135.664C465.565 135.664 465.396 135.552 465.313 135.388C465.28 135.321 465.261 135.245 465.261 135.164C465.261 135.106 465.242 135.038 465.173 134.939C465.098 134.83 464.988 134.719 464.833 134.568L464.78 134.517L464.643 134.383C461.276 132.108 458.649 127.231 462 118.015C463.685 113.381 464.187 109.967 464.042 107.228ZM391.561 133.497C371.895 140.101 356.354 156.46 350.049 177.18C344.486 158.569 331.482 143.439 314.717 135.671C328.179 128.712 338.065 115.549 340.8 99.846C341.871 105.628 346.828 110 352.78 110C359.516 110 364.976 104.403 364.976 97.4998C364.976 90.5965 359.516 84.9998 352.78 84.9998C352.313 84.9998 351.852 85.0266 351.398 85.0789C350.461 85.1873 349.557 85.4046 348.697 85.7175C348.721 85.6536 348.743 85.5891 348.763 85.5242C348.78 85.4724 348.795 85.4202 348.811 85.3675C348.934 84.9329 349 84.4739 349 83.9998L348.999 83.8792L348.997 83.8338C348.995 83.7591 348.991 83.6848 348.985 83.6106L348.978 83.5247L348.97 83.4485C348.952 83.2879 348.927 83.1292 348.895 82.9734C348.856 82.7913 348.809 82.6121 348.751 82.4378C348.58 81.9153 348.324 81.4304 348 80.9998C348.106 80.9202 348.208 80.8367 348.308 80.7498C348.409 80.6599 348.507 80.5657 348.602 80.468L349.105 80.7151C351.958 82.2781 354.858 83.9314 357.625 85.5095L357.636 85.5154C361.982 87.9939 366.003 90.2854 369.002 91.7498C369.144 109.296 378.104 124.687 391.561 133.497ZM233.352 164.137C240.903 150.156 253.055 139.297 267.634 133.853C259.162 128.619 252.369 120.821 248.278 111.506C246.244 112.94 243.763 113.782 241.085 113.782C235.07 113.782 230.047 109.532 228.854 103.872C225.127 117.647 215.662 129.063 203.182 135.396C215.95 141.279 226.547 151.429 233.352 164.137ZM155.362 133.962C140.439 139.791 128.138 151.32 120.837 166.042C114.123 152.401 103.122 141.483 89.7173 135.272C103.179 128.313 113.065 115.15 115.8 99.4475C116.871 105.229 121.828 109.601 127.78 109.601C129.909 109.601 131.91 109.043 133.651 108.06C137.681 119.003 145.429 128.147 155.362 133.962ZM131.152 83.2312C124.833 84.0174 119.587 85.7796 116.52 88.0769C117.403 83.6189 118.463 77.4519 118.981 72.1629C122.796 75.034 127.328 77.0208 132.286 77.8035C132.055 78.6648 131.847 79.5354 131.662 80.4143C131.557 80.9094 131.46 81.408 131.37 81.909C131.292 82.3474 131.219 82.7883 131.152 83.2312ZM545.847 138.952C542.819 137.117 539.636 135.535 536.324 134.235C539.956 132.063 543.289 129.425 546.246 126.399C547.443 129.93 548.171 135.081 545.847 138.952Z" fill="black"/>
</svg>
