<svg width="621" height="371" viewBox="0 0 621 371" fill="none" xmlns="http://www.w3.org/2000/svg">
<g clip-path="url(#clip0_737_816)">
<rect width="621" height="371" fill="#428493"/>
<g filter="url(#filter0_d_737_816)">
<ellipse cx="310.5" cy="138" rx="141.5" ry="135" fill="url(#paint0_radial_737_816)" shape-rendering="crispEdges"/>
</g>
<path fill-rule="evenodd" clip-rule="evenodd" d="M256.557 174.095C254.133 175.338 251.521 176.258 248.782 176.804C249.31 179.717 249.585 182.717 249.585 185.782C249.585 187.115 249.534 188.435 249.431 189.741C251.357 186.612 254.622 184.395 258.428 183.89C257.545 182.989 257 181.754 257 180.391C257 180.278 257.004 180.166 257.011 180.055C257.024 179.866 257.047 179.679 257.08 179.495C256.404 178.643 256 177.564 256 176.391C256 175.564 256.201 174.783 256.557 174.095ZM271.479 138.231C267.772 126.658 257.202 118.036 244.349 117.414C239.06 117.158 234.024 118.288 229.594 120.485C224.797 106.312 211.723 95.8118 195.874 95.0447C181.385 94.343 168.419 101.962 161.606 113.698C160.253 113.442 158.866 113.277 157.451 113.208C145.629 112.636 135.074 118.988 129.718 128.695C128.487 126.699 126.931 124.93 125.132 123.364C122.858 121.217 120.04 119.169 116.567 117.383L116.536 117.367L116.504 117.355C110.296 115.174 99.8485 112.639 88.6368 112.103C77.438 111.567 65.4053 113.024 56.0814 118.898C54.1321 120.001 51.0561 122.096 48.1107 124.823C45.2271 127.492 42.4317 130.802 40.9648 134.412C39.9794 134.708 37.8979 135.531 35.1784 136.664C32.9907 137.576 30.3647 138.699 27.512 139.936L23.3379 141.327L11.6931 146.907C7.55692 148.751 3.68597 150.491 0.63193 151.872L0.755745 152.148L5.67436e-05 152.51C0.241184 152.406 0.516459 152.336 0.823314 152.299L1.04096 152.784C1.16362 152.73 1.38746 152.689 1.74906 152.703C2.10171 152.718 2.54268 152.783 3.06949 152.9C4.12267 153.134 5.46705 153.566 7.03956 154.159C10.1817 155.344 14.178 157.152 18.4692 159.239C18.7922 159.396 19.1168 159.555 19.4428 159.715C22.2953 161.278 25.1954 162.932 27.9633 164.51C32.3141 166.99 36.3385 169.285 39.3396 170.75C39.4814 188.296 48.4408 203.688 61.8981 212.497C36.0566 221.176 17.3379 246.696 17.3379 276.827C17.3379 314.106 45.9917 344.327 81.3379 344.327C104.188 344.327 124.241 331.697 135.564 312.695C143.768 339.996 167.986 359.782 196.585 359.782C220.426 359.782 241.221 346.034 252.234 325.645C263.216 346.154 284.075 360 308 360C333.326 360 355.217 344.484 365.593 321.974C376.042 344.269 397.823 359.602 423 359.602C446.299 359.602 466.689 346.471 477.883 326.844C489.025 346.7 509.538 360.015 533 360.015C568.346 360.015 597 329.795 597 292.515C597 269.187 585.779 248.622 568.719 236.498C569.559 235.91 570.339 235.115 571 234.062C572.035 232.412 572.778 230.128 573 227.015C573.134 225.141 573.12 223.502 572.994 222.072C573.662 226.142 576.538 228.053 578 228.515C575.2 218.515 584.167 225.015 589 229.515C591.8 228.715 590.5 218.182 589.5 213.015C587.615 208.114 594.466 211.712 598.749 214.514C598.817 214.596 598.887 214.669 598.957 214.731C598.99 214.761 599.024 214.789 599.058 214.815C599.079 214.831 599.1 214.846 599.121 214.86C599.247 214.945 599.373 214.997 599.5 215.015L599.351 214.915L599.149 214.779C599.019 214.692 598.885 214.604 598.749 214.514C597.557 213.103 596.475 208.908 595.742 203.937C600.004 201.989 602.976 197.608 602.976 192.515C602.976 187.809 600.438 183.711 596.689 181.578C598.472 176.751 591.557 169.249 588 166.015C589.6 160.816 576.333 147.849 569.5 142.015C567.9 134.015 554.167 133.349 547.5 134.015C543.1 126.015 527 129.349 519.5 132.015C513.548 129.615 505.353 136.349 502 140.015C501.281 140.303 500.386 140.611 499.379 140.958C493.385 143.023 483.428 146.454 483 155.015C482.806 158.894 483.419 160.438 483.871 161.576C484.584 163.372 484.896 164.157 481 171.515C478.557 176.13 477.489 180.597 477.397 184.117C476.635 185.057 476.004 186.114 475.535 187.258C475.552 186.708 475.561 186.156 475.561 185.602C475.561 184.782 475.542 183.966 475.504 183.156C477.022 175.514 479.075 162.758 478 158.102C477.667 158.935 476.4 160.801 474 161.602C472.833 151.602 468.4 131.201 460 129.602C460.333 131.102 460.8 134.201 460 134.602C445.667 127.435 414.5 114.002 404.5 117.602C405.667 118.268 407.9 119.802 407.5 120.602C400.5 124.459 387.134 131.327 382.198 132.204C381.756 131.892 381.044 131.946 380.5 132.102C380.786 132.33 381.375 132.351 382.198 132.204C382.702 132.561 382.853 133.396 382 135.102C379.833 143.935 374.8 161.401 372 160.602C372.667 161.602 374.5 163.302 376.5 162.102C378.449 161.127 382.204 160.532 382.022 165.688C380.947 168.224 380.071 170.868 379.414 173.602H370V180.132C369.205 180.251 368.435 180.449 367.697 180.718C367.893 180.182 368 179.603 368 179C368 178.944 367.999 178.889 367.997 178.834C367.996 178.787 367.993 178.741 367.991 178.694C367.989 178.666 367.987 178.639 367.985 178.611C367.98 178.557 367.976 178.502 367.97 178.449C367.932 178.1 367.857 177.762 367.751 177.438C367.58 176.915 367.324 176.431 367 176C368.215 175.088 369 173.636 369 172C369 169.666 367.401 167.706 365.239 167.155C365.486 166.209 365.51 165.19 365.26 164.22C364.871 162.709 363.905 161.653 362.728 161.253C363.025 160.252 363.072 159.158 362.804 158.118C362.525 157.035 361.949 156.185 361.212 155.644C361.184 155.357 361.135 155.07 361.062 154.788C360.658 153.221 359.634 152.144 358.398 151.78L358.416 151.699L358.429 151.64C358.737 150.196 358.503 148.788 357.88 147.72C358.593 146.476 359 145.036 359 143.5C359 138.806 355.194 135 350.5 135C348.753 135 347.13 135.527 345.78 136.43C345.924 135.81 346 135.164 346 134.5C346 129.806 342.194 126 337.5 126C334.895 126 332.563 127.172 331.003 129.018C330.049 128.871 329.077 128.971 328.177 129.272C327.721 127.887 326.553 126.759 324.899 126.319C323.835 126.036 322.724 126.078 321.697 126.381C321.06 123.834 318.895 121.97 316.348 122C314.564 122.021 312.993 122.968 312.018 124.414C311.095 123.683 309.956 123.257 308.728 123.271C307.448 123.286 306.278 123.778 305.359 124.587C305.188 124.556 305.014 124.533 304.838 124.519C304.687 124.508 304.535 124.502 304.381 124.504C302.63 124.525 301.085 125.436 300.106 126.835C299.24 125.918 298.098 125.355 296.84 125.339C294.507 125.309 292.523 127.173 291.938 129.72C290.997 129.416 289.979 129.374 289.004 129.657C288.161 129.902 287.456 130.359 286.924 130.955C285.452 129.734 283.562 129 281.5 129C276.806 129 273 132.806 273 137.5C273 137.607 273.002 137.714 273.006 137.82C272.672 137.974 272.359 138.168 272.076 138.397C272.024 138.381 271.972 138.364 271.92 138.349L271.856 138.33L271.795 138.313C271.77 138.306 271.744 138.299 271.719 138.292C271.691 138.284 271.663 138.277 271.635 138.27C271.611 138.264 271.587 138.257 271.562 138.251C271.534 138.244 271.507 138.238 271.479 138.231ZM483.045 204.004C478.844 202.62 475.637 198.964 474.8 194.448C472.065 210.151 462.179 223.314 448.717 230.273C461.033 235.979 471.319 245.659 478.117 257.773C485.071 245.579 495.576 235.893 508.122 230.305C500.783 226.352 494.547 220.539 490.01 213.478C489.82 215.8 489.376 217.812 489 219.015C487.5 221.182 485.2 226.615 488 231.015C487.512 230.959 486.985 230.855 486.44 230.695C486.05 230.581 485.651 230.438 485.251 230.264C485.237 230.335 485.208 230.399 485.167 230.456C485.077 230.582 484.928 230.665 484.761 230.665C484.565 230.665 484.396 230.552 484.313 230.389C484.28 230.321 484.261 230.245 484.261 230.165C484.261 230.107 484.242 230.039 484.173 229.94C484.098 229.831 483.988 229.719 483.833 229.568L483.78 229.518L483.643 229.383C480.276 227.108 477.649 222.231 481 213.015C482.339 209.332 482.931 206.42 483.045 204.004ZM136.899 170.327C136.899 168.927 136.843 167.541 136.733 166.17C137.568 166.871 138.443 167.528 139.353 168.136C138.31 169.242 137.463 170.544 136.873 171.983C136.89 171.434 136.899 170.881 136.899 170.327ZM136.138 179.174C136.326 180.191 136.635 181.164 137.048 182.078C136.378 182.463 135.775 182.868 135.244 183.29C135.596 181.939 135.895 180.566 136.138 179.174ZM108.579 215.729C119.572 210.516 128.352 201.231 133.076 189.763C134.939 193.469 141.922 196.433 150.948 197.425C154.15 210.85 162.767 222.175 174.362 228.962C161.041 234.165 149.81 243.91 142.359 256.413C136.95 238.412 124.579 223.678 108.579 215.729ZM380.45 201.291C378.239 203.581 375.172 205 371.78 205C365.828 205 360.871 200.628 359.8 194.846C357.065 210.549 347.179 223.712 333.717 230.671C347.509 237.061 358.755 248.433 365.407 262.628C372.714 246.777 385.729 234.394 401.634 228.455C391.74 222.342 384.135 212.73 380.45 201.291ZM252.351 259.137C259.903 245.156 272.055 234.297 286.634 228.853C278.162 223.619 271.369 215.82 267.278 206.506C265.244 207.94 262.763 208.782 260.085 208.782C254.07 208.782 249.047 204.532 247.855 198.872C244.127 212.647 234.662 224.063 222.182 230.396C234.95 236.279 245.547 246.429 252.351 259.137ZM564.847 233.952C561.819 232.117 558.636 230.535 555.324 229.235C558.956 227.064 562.289 224.425 565.246 221.399C566.443 224.931 567.171 230.082 564.847 233.952Z" fill="black"/>
<rect y="256" width="621" height="115" fill="#792E2E"/>
<rect x="128" y="256" width="15" height="115" fill="#631919"/>
<rect x="13" y="256" width="15" height="115" fill="#631919"/>
<rect x="243" y="256" width="15" height="115" fill="#631919"/>
<rect x="358" y="256" width="15" height="115" fill="#631919"/>
<rect x="473" y="256" width="15" height="115" fill="#631919"/>
<rect x="588" y="256" width="15" height="115" fill="#631919"/>
</g>
<defs>
<filter id="filter0_d_737_816" x="112" y="-47" width="397" height="384" filterUnits="userSpaceOnUse" color-interpolation-filters="sRGB">
<feFlood flood-opacity="0" result="BackgroundImageFix"/>
<feColorMatrix in="SourceAlpha" type="matrix" values="0 0 0 0 0 0 0 0 0 0 0 0 0 0 0 0 0 0 127 0" result="hardAlpha"/>
<feMorphology radius="36" operator="dilate" in="SourceAlpha" result="effect1_dropShadow_737_816"/>
<feOffset dy="7"/>
<feGaussianBlur stdDeviation="10.5"/>
<feComposite in2="hardAlpha" operator="out"/>
<feColorMatrix type="matrix" values="0 0 0 0 0.8 0 0 0 0 0.582667 0 0 0 0 0.256667 0 0 0 0.47 0"/>
<feBlend mode="normal" in2="BackgroundImageFix" result="effect1_dropShadow_737_816"/>
<feBlend mode="normal" in="SourceGraphic" in2="effect1_dropShadow_737_816" result="shape"/>
</filter>
<radialGradient id="paint0_radial_737_816" cx="0" cy="0" r="1" gradientUnits="userSpaceOnUse" gradientTransform="translate(311 -12) rotate(90) scale(329 288.784)">
<stop stop-color="#F3890D"/>
<stop offset="0.866031" stop-color="#F3890D" stop-opacity="0.74"/>
<stop offset="1" stop-color="#F3890D" stop-opacity="0"/>
</radialGradient>
<clipPath id="clip0_737_816">
<rect width="621" height="371" fill="white"/>
</clipPath>
</defs>
</svg>
