<svg width="127" height="111" viewBox="0 0 127 111" fill="none" xmlns="http://www.w3.org/2000/svg">
<path d="M103.061 58C103.061 85.3498 81.4335 107.5 54.7805 107.5C28.1275 107.5 6.5 85.3498 6.5 58C6.5 30.6502 28.1275 8.5 54.7805 8.5C81.4335 8.5 103.061 30.6502 103.061 58Z" fill="#E7D07F" stroke="#01001C"/>
<path d="M126.476 64.5C126.476 71.1391 121.228 76.5 114.781 76.5C108.333 76.5 103.085 71.1391 103.085 64.5C103.085 57.8609 108.333 52.5 114.781 52.5C121.228 52.5 126.476 57.8609 126.476 64.5Z" fill="#E7D07F" stroke="#01001C"/>
<path d="M116.18 56.4903L113.811 63.7473M111.441 71.0043L113.811 63.7473M113.811 63.7473L118.121 65.4927" stroke="black" stroke-linecap="round"/>
<path d="M75.5001 49.9999C77.5001 41.9999 66.3334 35.9999 60.5001 33.9999C57.3543 34.4838 53.806 31.6985 50.94 28.4999C38.5893 30.038 35.5251 24.3066 35.49 20.8995C35.3368 24.0093 33.3932 29.6169 26.4999 29.9999C25.1666 31.8332 21.8999 35.4999 19.4999 35.4999C16.4999 35.4999 15.5 45 17.5 48C19.1 50.4 16.1667 58.6667 14.5001 62.5C12.1668 64.8333 10.9999 71.2999 12.9999 76.4999C14.9999 81.6999 13.8333 88.3332 12.9999 90.9999C11.4999 93.1665 9.19979 98.5999 11.9998 103C7.66649 102.5 0.199893 98.1999 4.99989 84.9999C9.79989 71.7999 5.00009 68.5 3 62.4999C0.666668 59.9999 0.499953 52 5.00009 43.5C11.3642 31.4793 6.50004 36.9999 6.99991 26.9999C7.49978 16.9999 20.9999 13.9999 25.9999 11.9999C29.3532 8.33322 37.5478 1.59989 43.4999 3.99989C50.9999 1.33323 67.0999 -2.0001 71.4999 5.9999C78.1666 5.33327 91.8999 6 93.4999 14C100.333 19.8333 113.6 32.8 112 38C115.667 41.3334 122.9 49.2001 120.5 54C108.5 49.2 103.667 59.3333 103 65C105.8 77.4 115.287 77.1666 119.681 75.4999C120.415 80.6549 121.523 85.0477 122.749 86.499C123.009 86.6697 123.261 86.8374 123.5 87C123.246 86.9638 122.995 86.7908 122.749 86.499C118.466 83.6968 111.615 80.0984 113.5 84.9999C114.5 90.1666 115.8 100.7 113 101.5C108.167 97 99.1999 90.5 102 100.5C100.538 100.038 97.6621 98.1266 96.9939 94.0566C97.1203 95.4866 97.1339 97.1256 97.0001 98.9999C96.7777 102.113 96.0352 104.397 95.0001 106.047C92.3111 110.333 87.6476 110.342 85.0001 109.5C92.6001 105.5 90.5001 95.8332 88.5001 91.4999C84.1667 89.8332 76.6001 84.7999 81.0001 77.9999C85.4001 71.1999 82.8334 64.8332 81.0001 62.4999C78.3334 61.6666 73.5001 57.9999 75.5001 49.9999Z" fill="#271706"/>
<path d="M46.5001 22.4999C47.4877 24.1459 49.0684 26.411 50.94 28.4999M87.5001 45.4999C84.0001 44.9999 85.0001 59.4999 88.5001 59.4999C92.0001 59.4999 100 71.4999 93.0001 75.4999C87.4001 78.6999 89.3334 83.1666 91.0001 84.9999C92.8431 84.9999 96.017 86.7467 96.8753 92.9999M50.94 28.4999C53.806 31.6985 57.3543 34.4838 60.5001 33.9999C66.3334 35.9999 77.5001 41.9999 75.5001 49.9999C73.5001 57.9999 78.3334 61.6666 81.0001 62.4999C82.8334 64.8332 85.4001 71.1999 81.0001 77.9999C76.6001 84.7999 84.1667 89.8332 88.5001 91.4999C90.5001 95.8332 92.6001 105.5 85.0001 109.5C87.6476 110.342 92.3111 110.333 95.0001 106.047C96.0352 104.397 96.7777 102.113 97.0001 98.9999C97.1682 96.6463 97.1037 94.6636 96.8753 92.9999M50.94 28.4999C38.0919 30.0999 35.2933 23.8332 35.5001 20.4999C35.5 23.4999 33.6999 29.5999 26.4999 29.9999M26.4999 29.9999C27.8333 28.3332 30.0999 23.8999 28.4999 19.4999M26.4999 29.9999C25.1666 31.8332 21.8999 35.4999 19.4999 35.4999C16.4999 35.4999 15.5 45 17.5 48C19.1 50.4 16.1667 58.6667 14.5001 62.5C12.1668 64.8333 10.9999 71.2999 12.9999 76.4999C14.9999 81.6999 13.8333 88.3332 12.9999 90.9999C11.4999 93.1666 9.19979 98.5999 11.9998 103C7.66649 102.5 0.199893 98.1999 4.99989 84.9999C9.79989 71.7999 5.00009 68.5 3 62.4999C0.666668 59.9999 0.499953 52 5.00009 43.5C11.3642 31.4793 6.50004 36.9999 6.99991 26.9999C7.49978 16.9999 20.9999 13.9999 25.9999 11.9999C29.3532 8.33322 37.5478 1.59989 43.4999 3.99989C50.9999 1.33323 67.0999 -2.0001 71.4999 5.9999C78.1666 5.33327 91.8999 6 93.4999 14C100.333 19.8333 113.6 32.8 112 38C115.667 41.3334 122.9 49.2001 120.5 54C108.5 49.2 103.667 59.3333 103 65C105.8 77.4 115.287 77.1666 119.681 75.4999C120.562 81.6915 121.984 86.7835 123.5 87C119.333 84.1666 111.5 79.7999 113.5 84.9999C114.5 90.1666 115.8 100.7 113 101.5C108.167 97 99.1999 90.5 102 100.5C100.417 99.9999 97.1757 97.7998 96.8753 92.9999" stroke="black"/>
<path d="M33.5 53.9999C30.1667 52.6666 22.3 50.7999 17.5 53.9999M53 53.9999C57.1667 51.9999 67 49.2 73 53.9999M32 86C34.6667 86.6667 42.6 87.6 53 86" stroke="black"/>
<path d="M24.5 59.5V65M64.5 59.5V65" stroke="black" stroke-width="3" stroke-linecap="round" stroke-linejoin="round"/>
<g filter="url(#filter0_f_699_643)">
<ellipse cx="73.587" cy="72.0263" rx="7.88461" ry="4.55269" transform="rotate(-10.589 73.587 72.0263)" fill="#F28677"/>
</g>
<g filter="url(#filter1_f_699_643)">
<ellipse rx="6.16217" ry="3.48249" transform="matrix(-0.947782 -0.31892 -0.31892 0.947782 24.7296 76.2661)" fill="#F28677"/>
</g>
<path d="M65.5 61.5L73 57L64.5 60V61.5H65.5Z" fill="black" stroke="black"/>
<path d="M23.5 61.5L16 57L24.5 60V61.5H23.5Z" fill="black" stroke="black"/>
<circle cx="57.5" cy="72.5" r="0.5" fill="black"/>
<circle cx="65.5" cy="76.5" r="0.5" fill="black"/>
<circle cx="68.5" cy="71.5" r="0.5" fill="black"/>
<circle cx="48.5" cy="68.5" r="0.5" fill="black"/>
<circle cx="24.5" cy="72.5" r="0.5" fill="black"/>
<circle cx="30.5" cy="69.5" r="0.5" fill="black"/>
<circle cx="77.5" cy="73.5" r="0.5" fill="black"/>
<circle cx="17.5" cy="66.5" r="0.5" fill="black"/>
<circle cx="18.5" cy="75.5" r="0.5" fill="black"/>
<circle cx="77.5" cy="67.5" r="0.5" fill="black"/>
<path d="M57.998 12.4847C59.8261 11.4515 62.5771 9.81336 64.6868 10.9703C65.8343 11.5995 67.215 13.1675 67.274 14.525C67.2965 15.0418 67.274 15.5641 67.274 16.0815C67.274 16.8929 69.5089 16.3226 69.9453 16.3129C72.014 16.2667 73.8705 16.3707 75.2248 18.0587C75.9663 18.9829 76.3555 19.9012 76.6551 21.014C76.7341 21.3075 76.8274 22.0715 77.1494 22.1603C79.4224 22.7874 80.8224 24.0596 82.3132 25.8413C83.9935 27.8494 84.6901 29.7432 84.6901 32.2671C84.6901 32.8834 87.7584 32.3849 88.2238 32.3723C90.5572 32.3092 92.3059 33.4575 94.0817 34.8858C95.6919 36.181 95.8591 38.2124 95.8591 40.1233" stroke="black" stroke-linecap="round"/>
<path d="M87.5293 18.5425C91.7305 18.5425 94.34 21.0909 94.8701 25.2733C94.9557 25.9482 94.8877 26.0266 95.6273 26.1252C96.527 26.2452 97.3458 26.4988 98.0462 27.1033C99.4368 28.3033 100.787 30.3482 101.233 32.1304C101.495 33.1801 101.151 33.439 102.348 33.8131C104.432 34.4643 106.448 35.5039 107.753 37.2837C109.509 39.6782 109.678 42.4087 109.678 45.2345" stroke="black" stroke-linecap="round"/>
<path d="M99.4373 51.4229C96.722 51.6697 95.6432 55.8188 96.2979 58.1104C96.4497 58.6417 97.7382 58.9778 98.1231 59.3077C98.9201 59.9909 99.6275 60.9882 100.489 61.5418C102.887 63.0839 100.649 66.6686 103.248 68.1125C104.571 68.8472 104.168 73.0825 104.168 74.6978C104.168 76.7402 104.537 78.9445 106.212 80.3341C107.586 81.4732 109.108 82.8678 109.162 84.7437C109.179 85.3504 109.642 90.7385 108.899 91.1101" stroke="black" stroke-linecap="round"/>
<path d="M43.7173 14.627C45.5639 14.627 46.8359 14.6723 48.0394 16.2039C48.4876 16.7744 48.8756 17.2616 48.9593 18.0145C49.0565 18.8899 49.8827 18.5694 50.6531 18.5694C54.0628 18.5694 55.5431 21.8044 57.2384 24.4684C58.2943 26.1278 61.3405 25.1401 63.2835 25.1401C65.2244 25.1401 66.2542 26.2638 67.6347 27.491C69.0166 28.7193 70.1354 30.0664 71.1829 31.5794C71.6208 32.2119 72.2097 33.2687 72.7599 33.6967C73.6142 34.3611 74.339 35.1381 75.2568 35.7117C75.632 35.9462 76.2352 36.7474 76.5125 37.0842C77.0392 37.7238 77.0997 38.9948 77.6807 39.4789C79.2761 40.8085 78.8417 43.1111 79.6665 44.8523C80.3368 46.2674 81.2398 48.0283 81.3019 49.6416C81.3347 50.4954 81.3019 51.3568 81.3019 52.2115C81.3019 53.4107 82.0903 54.475 82.0903 55.6283" stroke="black" stroke-linecap="round"/>
<path d="M22.1653 21.1978C19.301 21.516 19.2742 25.642 19.2742 27.7101C19.2742 28.0599 19.5078 28.2779 19.5078 28.5716C19.5078 29.2093 18.4811 30.0128 18.1352 30.4844C17.5035 31.3459 16.9087 32.7475 16.9087 33.8136" stroke="black" stroke-linecap="round"/>
<path d="M12.4406 39.5957C12.4406 41.9222 12.4406 44.2488 12.4406 46.5753C12.4406 48.5406 13.2291 50.0132 13.2291 51.9487C13.2291 52.8289 13.7161 58.13 12.7034 58.2566C12.484 58.284 11.3482 60.1676 11.1849 60.476C10.8216 61.1621 10.442 61.7678 10.1335 62.4618C9.48066 63.9308 8.96112 65.5067 8.51276 67.076C8.09393 68.5418 8.49816 70.7856 8.49816 72.3179C8.49816 74.2984 10.2333 75.9806 10.338 77.9688C10.3965 79.0815 11.3482 79.9951 11.3893 81.0643C11.4236 81.9566 11.3893 82.8577 11.3893 83.751" stroke="black" stroke-linecap="round"/>
<path d="M8.2355 49.3206C8.2355 52.2638 7.1541 56.094 8.49833 58.7824" stroke="black" stroke-linecap="round"/>
<path d="M7.18382 90.0591C5.87719 90.4946 6.11854 97.3932 6.86258 98.7324C7.12179 99.199 7.34612 99.6599 7.46125 100.178C7.64838 101.02 8.76079 101.39 8.76079 102.149" stroke="black" stroke-linecap="round"/>
<path d="M38.0002 57.5C39.0002 60.6667 41.5002 67 40.5002 70.5C37.5002 71 35.9 75 39.5 77C43.1 79 47.0002 77.3333 48.0002 76.5" stroke="black"/>
<defs>
<filter id="filter0_f_699_643" x="51.791" y="53.3213" width="43.5918" height="37.4102" filterUnits="userSpaceOnUse" color-interpolation-filters="sRGB">
<feFlood flood-opacity="0" result="BackgroundImageFix"/>
<feBlend mode="normal" in="SourceGraphic" in2="BackgroundImageFix" result="shape"/>
<feGaussianBlur stdDeviation="7" result="effect1_foregroundBlur_699_643"/>
</filter>
<filter id="filter1_f_699_643" x="4.78369" y="58.4238" width="39.8921" height="35.6841" filterUnits="userSpaceOnUse" color-interpolation-filters="sRGB">
<feFlood flood-opacity="0" result="BackgroundImageFix"/>
<feBlend mode="normal" in="SourceGraphic" in2="BackgroundImageFix" result="shape"/>
<feGaussianBlur stdDeviation="7" result="effect1_foregroundBlur_699_643"/>
</filter>
</defs>
</svg>
