<svg width="328" height="283" viewBox="0 0 328 283" fill="none" xmlns="http://www.w3.org/2000/svg">
<g clip-path="url(#clip0_708_505)">
<rect width="328" height="283" rx="10" fill="url(#paint0_radial_708_505)"/>
<path d="M200.64 126.07C200.64 134.374 193.922 141.106 185.634 141.106C177.346 141.106 170.628 134.374 170.628 126.07C170.628 117.767 177.346 111.035 185.634 111.035C193.922 111.035 200.64 117.767 200.64 126.07Z" fill="#F9FFFA"/>
<path d="M199.335 126.071C199.335 133.652 193.201 139.799 185.634 139.799C178.067 139.799 171.933 133.652 171.933 126.071C171.933 118.489 178.067 112.343 185.634 112.343C193.201 112.343 199.335 118.489 199.335 126.071Z" fill="#01001C"/>
<path d="M197.378 126.07C197.378 132.569 192.12 137.837 185.634 137.837C179.148 137.837 173.89 132.569 173.89 126.07C173.89 119.572 179.148 114.304 185.634 114.304C192.12 114.304 197.378 119.572 197.378 126.07Z" fill="#F9FFFA"/>
<path d="M195.421 126.071C195.421 131.486 191.039 135.876 185.634 135.876C180.229 135.876 175.848 131.486 175.848 126.071C175.848 120.655 180.229 116.265 185.634 116.265C191.039 116.265 195.421 120.655 195.421 126.071Z" fill="#01001C"/>
<path d="M193.463 126.071C193.463 130.403 189.958 133.915 185.634 133.915C181.31 133.915 177.805 130.403 177.805 126.071C177.805 121.738 181.31 118.226 185.634 118.226C189.958 118.226 193.463 121.738 193.463 126.071Z" fill="#F9FFFA"/>
<path d="M192.159 126.071C192.159 129.681 189.238 132.608 185.634 132.608C182.031 132.608 179.11 129.681 179.11 126.071C179.11 122.46 182.031 119.534 185.634 119.534C189.238 119.534 192.159 122.46 192.159 126.071Z" fill="#01001C"/>
<path d="M190.201 126.071C190.201 128.598 188.157 130.647 185.634 130.647C183.112 130.647 181.067 128.598 181.067 126.071C181.067 123.543 183.112 121.495 185.634 121.495C188.157 121.495 190.201 123.543 190.201 126.071Z" fill="#F9FFFA"/>
<path d="M188.896 126.071C188.896 127.876 187.436 129.339 185.634 129.339C183.833 129.339 182.372 127.876 182.372 126.071C182.372 124.266 183.833 122.802 185.634 122.802C187.436 122.802 188.896 124.266 188.896 126.071Z" fill="#01001C"/>
<path d="M159.64 134.07C159.64 142.374 152.922 149.106 144.634 149.106C136.346 149.106 129.628 142.374 129.628 134.07C129.628 125.767 136.346 119.035 144.634 119.035C152.922 119.035 159.64 125.767 159.64 134.07Z" fill="#F9FFFA"/>
<path d="M158.335 134.071C158.335 141.652 152.201 147.799 144.634 147.799C137.067 147.799 130.933 141.652 130.933 134.071C130.933 126.489 137.067 120.343 144.634 120.343C152.201 120.343 158.335 126.489 158.335 134.071Z" fill="#01001C"/>
<path d="M156.378 134.07C156.378 140.569 151.12 145.837 144.634 145.837C138.148 145.837 132.89 140.569 132.89 134.07C132.89 127.572 138.148 122.304 144.634 122.304C151.12 122.304 156.378 127.572 156.378 134.07Z" fill="#F9FFFA"/>
<path d="M154.421 134.071C154.421 139.486 150.039 143.876 144.634 143.876C139.229 143.876 134.848 139.486 134.848 134.071C134.848 128.655 139.229 124.265 144.634 124.265C150.039 124.265 154.421 128.655 154.421 134.071Z" fill="#01001C"/>
<path d="M152.463 134.071C152.463 138.403 148.958 141.915 144.634 141.915C140.31 141.915 136.805 138.403 136.805 134.071C136.805 129.738 140.31 126.226 144.634 126.226C148.958 126.226 152.463 129.738 152.463 134.071Z" fill="#F9FFFA"/>
<path d="M151.159 134.071C151.159 137.681 148.238 140.608 144.634 140.608C141.031 140.608 138.11 137.681 138.11 134.071C138.11 130.46 141.031 127.534 144.634 127.534C148.238 127.534 151.159 130.46 151.159 134.071Z" fill="#01001C"/>
<path d="M149.201 134.071C149.201 136.598 147.157 138.647 144.634 138.647C142.112 138.647 140.067 136.598 140.067 134.071C140.067 131.543 142.112 129.495 144.634 129.495C147.157 129.495 149.201 131.543 149.201 134.071Z" fill="#F9FFFA"/>
<path d="M147.896 134.071C147.896 135.876 146.436 137.339 144.634 137.339C142.833 137.339 141.372 135.876 141.372 134.071C141.372 132.266 142.833 130.802 144.634 130.802C146.436 130.802 147.896 132.266 147.896 134.071Z" fill="#01001C"/>
<path fill-rule="evenodd" clip-rule="evenodd" d="M152.96 180.835C116.16 206.835 113.627 223.001 116.96 227.835L117.46 228.334C116.26 229.134 115.294 230.668 114.96 231.334C114.16 232.534 113.627 236.168 113.46 237.834C112.46 238.834 109.96 240.934 107.96 241.334C105.96 241.734 93.7936 245.834 87.9602 247.834C84.023 250.131 86.7691 250.791 89.6312 250.862C88.5644 250.674 87.792 250.166 87.4602 249.834C86.6602 248.234 91.7936 247.168 94.4602 246.834L94.9602 246.334C95.7602 247.934 98.9602 248.001 100.46 247.834C96.8601 247.034 97.2934 246.168 97.9601 245.834C101.96 246.234 101.96 247.668 101.46 248.334C99.0601 249.934 102.127 251.001 103.96 251.334C113.56 252.934 114.627 252.334 113.96 251.834L106.46 250.834C104.06 250.034 104.794 249.168 105.46 248.834L112.96 249.834C115.76 249.834 115.46 250.834 114.96 251.334C111.76 254.534 124.627 255.001 131.46 254.834C135.46 254.834 142.46 253.501 145.46 252.834C148.66 254.034 160.127 254.001 165.46 253.834C172.66 253.834 172.46 253.168 171.46 252.834H160.46L160.96 252.334C170.98 251.178 165.406 250.548 160.96 250.355C160.792 250.347 160.625 250.341 160.46 250.334C149.66 249.934 142.627 245.501 140.46 243.334C136.46 248.934 126.46 248.334 121.96 247.334C120.36 244.934 121.96 241.668 122.96 240.334C123.76 240.334 125.627 235.334 126.46 232.834C127.26 232.834 128.794 232.168 129.46 231.834C127.46 231.334 124.06 229.734 126.46 227.334C128.86 224.934 131.794 227.001 132.96 228.334L135.96 227.334C137.56 212.134 150.627 208.334 156.96 208.334L157.46 209.834C159.06 208.634 167.794 208.668 171.96 208.834C173.16 208.834 175.794 212.168 176.96 213.834C179.76 213.834 183.127 214.834 184.46 215.334C201.66 210.534 211.294 224.001 213.96 231.334L227.46 234.334C214.26 222.734 228.96 177.834 237.96 156.834C247.96 131.634 233.794 111.001 225.46 103.835C219.46 97.3346 199.86 83.0346 169.46 77.8346C139.06 72.6346 121.794 93.0013 116.96 103.835C113.794 109.501 113.16 125.535 135.96 144.335C158.76 163.135 156.794 176.501 152.96 180.835ZM176.96 128.334C172.56 131.134 177.46 133.168 180.46 133.834C196.86 127.834 195.627 120.668 192.96 117.834C191.76 112.634 181.794 122.668 176.96 128.334ZM137.96 128.334C141.16 128.334 149.294 133.668 152.96 136.334C154.96 139.534 152.794 141.334 151.46 141.834C147.46 141.434 140.794 138.001 137.96 136.334C133.56 130.734 136.127 128.668 137.96 128.334ZM194.46 154.834C175.66 147.234 164.294 156.668 160.96 162.334C159.294 158.334 159.56 149.934 173.96 148.334C188.36 146.734 193.627 152.001 194.46 154.834Z" fill="#090914"/>
<path d="M135.96 227.334L132.96 228.334C131.794 227.001 128.86 224.934 126.46 227.334C124.06 229.734 127.46 231.334 129.46 231.834C128.794 232.168 127.26 232.834 126.46 232.834C125.627 235.334 123.76 240.334 122.96 240.334C121.96 241.668 120.36 244.934 121.96 247.334C126.46 248.334 136.46 248.934 140.46 243.334C142.627 245.501 149.66 249.934 160.46 250.334C160.625 250.341 160.792 250.347 160.96 250.355L161.46 249.834C162.266 248.47 162.554 247.313 162.432 246.334C161.767 241.001 148.924 240.989 141.46 241.834C141.86 241.434 141.96 241.001 141.96 240.834C144.76 241.634 146.794 239.168 147.46 237.834C147.46 230.025 141.127 226.581 137.96 225.834C137.56 226.634 136.46 227.168 135.96 227.334Z" fill="#513617"/>
<path d="M227.46 234.334L213.96 231.334C211.294 224.001 201.66 210.534 184.46 215.334C183.467 215.668 180.927 216.634 178.72 217.834C179.803 220.448 181.128 223.743 181.96 225.834C187.96 230.234 185.794 233.001 183.96 233.834C179.96 236.234 178.294 230.834 177.96 227.834L173.46 221.834C163.86 226.234 168.127 233.001 171.46 235.834C189.998 246.012 210.765 243.748 221.155 240.749C222.199 240.448 223.139 240.139 223.96 239.834V234.334H227.46Z" fill="#C03B28"/>
<path d="M157.46 209.834L156.96 208.334C150.627 208.334 137.56 212.134 135.96 227.334C136.46 227.168 137.56 226.634 137.96 225.834C141.127 226.581 147.46 230.025 147.46 237.834C146.794 239.168 144.76 241.634 141.96 240.834C141.96 241.001 141.86 241.434 141.46 241.834C148.924 240.989 161.767 241.001 162.432 246.334H169.46C168.127 244.334 166.66 239.434 171.46 235.834C168.127 233.001 163.86 226.234 173.46 221.834C172.46 220.168 170.26 216.834 169.46 216.834L159.96 218.334C159.627 215.834 158.66 210.634 157.46 209.834Z" fill="#FEB023"/>
<path d="M184.46 215.334C183.127 214.834 179.76 213.834 176.96 213.834C177.138 214.081 177.851 215.739 178.72 217.834C180.927 216.634 183.467 215.668 184.46 215.334Z" fill="#FEB023"/>
<path d="M231.96 235.834C230.36 233.434 228.294 233.834 227.46 234.334C228.627 234.501 230.86 235.434 230.46 237.834C230.06 240.234 228.294 240.168 227.46 239.834L228.96 240.834C230.627 241.001 234.66 241.834 237.46 243.834C240.26 239.834 237.294 238.168 235.46 237.834C234.26 237.834 232.627 236.501 231.96 235.834Z" fill="#090914"/>
<path d="M236.46 249.334C240.86 247.334 238.96 244.834 237.46 243.834C234.66 241.834 230.627 241.001 228.96 240.834L226.46 242.334C230.46 241.134 231.127 243.501 230.96 244.834C230.56 246.834 228.46 247.334 227.46 247.334C229.06 250.134 234.127 249.834 236.46 249.334Z" fill="#090914"/>
<path d="M176.96 213.834C175.794 212.168 173.16 208.834 171.96 208.834C167.794 208.668 159.06 208.634 157.46 209.834C158.66 210.634 159.627 215.834 159.96 218.334L169.46 216.834C170.26 216.834 172.46 220.168 173.46 221.834L177.96 227.834C178.294 230.834 179.96 236.234 183.96 233.834C185.794 233.001 187.96 230.234 181.96 225.834C181.128 223.743 179.803 220.448 178.72 217.834C177.851 215.739 177.138 214.081 176.96 213.834Z" fill="#513617"/>
<path d="M227.46 247.334C228.46 247.334 230.56 246.834 230.96 244.834C231.127 243.501 230.46 241.134 226.46 242.334H223.96C224.96 243.668 226.66 246.534 225.46 247.334H227.46Z" fill="#513617"/>
<path d="M227.46 239.834C228.294 240.168 230.06 240.234 230.46 237.834C230.86 235.434 228.627 234.501 227.46 234.334H223.96V239.834H227.46Z" fill="#513617"/>
<path d="M225.46 247.334C226.66 246.534 224.96 243.668 223.96 242.334C223.645 241.777 222.642 240.68 221.155 240.749C210.765 243.748 189.998 246.012 171.46 235.834C166.66 239.434 168.127 244.334 169.46 246.334C177.627 252.001 200.26 260.134 225.46 247.334Z" fill="#C03B28"/>
<path fill-rule="evenodd" clip-rule="evenodd" d="M169.376 78.3272C139.276 73.1785 122.192 93.3352 117.417 104.038L117.408 104.059L117.397 104.078C114.398 109.445 113.573 125.226 136.278 143.949C147.723 153.385 153.009 161.504 154.927 167.865C156.845 174.228 155.389 178.844 153.335 181.166L153.296 181.209L153.249 181.243C134.877 194.223 125.104 204.718 120.337 212.532C115.576 220.337 115.877 225.331 117.347 227.514L118.245 228.412L117.738 228.75C116.645 229.479 115.727 230.92 115.408 231.558L115.394 231.586L115.376 231.612C115.217 231.85 115.051 232.246 114.89 232.769C114.731 233.283 114.588 233.884 114.463 234.508C114.213 235.755 114.04 237.063 113.958 237.884L113.94 238.062L113.814 238.188C113.295 238.706 112.398 239.501 111.372 240.219C110.357 240.93 109.162 241.604 108.058 241.825C107.097 242.017 103.594 243.128 99.5543 244.459C98.1621 244.918 96.7124 245.401 95.2909 245.877L95.4075 246.111C95.6882 246.672 96.4458 247.051 97.4889 247.246C97.375 247.154 97.2798 247.056 97.2046 246.952C97.0952 246.8 97.0226 246.626 97.0101 246.435C96.9975 246.244 97.0477 246.073 97.1262 245.932C97.2741 245.666 97.5277 245.491 97.7366 245.387L97.866 245.322L98.0099 245.337C100.033 245.539 101.201 246.011 101.771 246.652C102.071 246.989 102.199 247.366 102.186 247.735C102.175 248.092 102.034 248.403 101.86 248.634L101.809 248.703L101.738 248.75C101.171 249.128 101.085 249.376 101.079 249.463C101.075 249.533 101.114 249.684 101.418 249.905C102.016 250.342 103.142 250.677 104.046 250.842C104.668 250.945 105.253 251.04 105.804 251.125C105.423 250.969 105.122 250.804 104.893 250.627C104.571 250.38 104.347 250.073 104.312 249.706C104.278 249.34 104.445 249.044 104.624 248.843C104.803 248.641 105.032 248.489 105.237 248.387L105.374 248.318L112.994 249.334C113.702 249.336 114.248 249.4 114.661 249.517C115.074 249.634 115.412 249.822 115.611 250.116C115.825 250.43 115.818 250.773 115.727 251.047C115.64 251.308 115.474 251.528 115.314 251.688C114.96 252.041 114.947 252.24 114.962 252.319C114.98 252.417 115.085 252.598 115.475 252.82C116.245 253.258 117.679 253.603 119.515 253.851C123.147 254.342 128.041 254.417 131.448 254.334L131.46 254.334C135.399 254.334 142.349 253.013 145.352 252.346L145.497 252.314L145.636 252.366C146.37 252.641 147.629 252.86 149.236 253.023C150.828 253.184 152.715 253.287 154.676 253.347C158.596 253.467 162.786 253.418 165.445 253.334L165.453 253.334H159.253L160.73 251.857L160.903 251.838C162.946 251.602 164.318 251.39 165.175 251.204C164.885 251.16 164.554 251.118 164.192 251.08C163.215 250.977 162.044 250.902 160.939 250.854C160.771 250.847 160.605 250.84 160.442 250.834C150.121 250.452 143.162 246.427 140.521 244.078C138.361 246.727 134.883 247.897 131.457 248.306C127.828 248.739 124.145 248.332 121.852 247.822L121.656 247.779L121.544 247.612C120.636 246.249 120.657 244.67 121.001 243.311C121.345 241.953 122.028 240.744 122.56 240.034L122.71 239.834H122.88C122.894 239.822 122.913 239.803 122.937 239.777C123.032 239.673 123.154 239.501 123.297 239.259C123.581 238.779 123.906 238.099 124.238 237.324C124.902 235.779 125.572 233.918 125.986 232.676L126.1 232.334H126.46C126.762 232.334 127.271 232.198 127.838 231.99C127.912 231.963 127.985 231.935 128.058 231.907C127.302 231.607 126.525 231.192 125.965 230.659C125.511 230.225 125.153 229.668 125.135 228.992C125.118 228.313 125.449 227.638 126.107 226.981C127.463 225.625 129.003 225.528 130.327 225.959C131.472 226.331 132.465 227.094 133.109 227.758L135.499 226.961C136.384 219.39 140.094 214.605 144.407 211.719C148.761 208.805 153.712 207.834 156.96 207.834H157.321L157.749 209.121C157.902 209.06 158.066 209.007 158.235 208.959C158.664 208.837 159.176 208.737 159.742 208.654C160.876 208.487 162.267 208.383 163.727 208.322C166.645 208.201 169.879 208.251 171.972 208.334C172.227 208.337 172.475 208.423 172.695 208.533C172.924 208.648 173.159 208.805 173.391 208.987C173.857 209.35 174.356 209.841 174.842 210.372C175.737 211.349 176.624 212.501 177.221 213.337C179.947 213.393 183.079 214.302 184.482 214.809C193.171 212.433 199.986 214.639 204.961 218.385C209.831 222.052 212.927 227.185 214.334 230.905L225.928 233.482C223.306 230.378 222.065 225.751 221.767 220.312C221.426 214.082 222.317 206.678 223.896 199.008C227.054 183.669 232.99 167.164 237.498 156.644C247.385 131.719 233.376 111.301 225.134 104.213L225.112 104.195L225.093 104.174C219.171 97.7585 199.673 83.5096 169.376 78.3272ZM223.46 233.958L213.584 231.763L213.49 231.505C212.183 227.91 209.159 222.798 204.36 219.184C199.583 215.587 193.038 213.464 184.607 215.812C183.683 216.123 181.421 216.983 179.355 218.062C180.381 220.548 181.582 223.532 182.372 225.517C185.319 227.706 186.422 229.601 186.398 231.179C186.373 232.783 185.195 233.814 184.193 234.277C183.115 234.918 182.124 235.074 181.239 234.81C180.363 234.549 179.686 233.904 179.17 233.138C178.177 231.66 177.664 229.551 177.479 228.026L173.305 222.46C171.17 223.491 169.828 224.626 169.04 225.764C168.215 226.956 167.978 228.181 168.107 229.367C168.369 231.76 170.132 234.036 171.746 235.421C190.114 245.483 210.707 243.244 221.017 240.268C221.914 240.009 222.731 239.745 223.46 239.484V233.958ZM224.05 240.334C223.713 240.458 223.358 240.582 222.985 240.706C223.554 241.034 223.976 241.478 224.232 241.834H226.322L228.026 240.812L227.309 240.334H224.05ZM229.074 241.349L228.789 241.52C229.569 241.584 230.171 241.852 230.616 242.27C231.423 243.03 231.55 244.145 231.456 244.896L231.454 244.914L231.451 244.932C231.215 246.112 230.47 246.847 229.671 247.275C229.248 247.502 228.803 247.647 228.394 247.732C229.17 248.497 230.376 248.91 231.745 249.075C233.41 249.276 235.173 249.093 236.303 248.857C238.385 247.897 238.751 246.935 238.676 246.265C238.588 245.488 237.893 244.724 237.183 244.25L237.176 244.246L237.17 244.241C234.558 242.376 230.789 241.548 229.074 241.349ZM227.183 247.834H225.58C200.358 260.59 177.685 252.571 169.305 246.834H162.959C162.946 247.766 162.629 248.788 161.996 249.906C162.795 249.952 163.592 250.011 164.297 250.086C164.799 250.138 165.261 250.199 165.645 250.269C166.016 250.336 166.359 250.419 166.597 250.531C166.701 250.579 166.879 250.675 166.987 250.856C167.05 250.962 167.089 251.1 167.067 251.252C167.046 251.397 166.976 251.506 166.912 251.58C166.795 251.714 166.632 251.8 166.496 251.86C166.347 251.925 166.162 251.987 165.945 252.046C165.61 252.139 165.167 252.234 164.602 252.334H171.541L171.618 252.36C171.761 252.407 171.908 252.467 172.034 252.54C172.138 252.599 172.326 252.721 172.417 252.934C172.471 253.061 172.488 253.214 172.437 253.369C172.391 253.513 172.3 253.614 172.221 253.68C172.072 253.805 171.872 253.883 171.673 253.94C170.87 254.171 169.05 254.334 165.468 254.334C162.794 254.418 158.587 254.468 154.645 254.346C152.672 254.286 150.759 254.182 149.135 254.018C147.611 253.863 146.298 253.651 145.428 253.354C142.357 254.029 135.466 255.333 131.466 255.334C128.04 255.418 123.088 255.343 119.381 254.842C117.546 254.594 115.936 254.233 114.98 253.689C114.578 253.46 114.207 253.151 114.044 252.731C113.934 252.768 113.817 252.793 113.699 252.811C113.467 252.848 113.174 252.868 112.815 252.872C111.384 252.885 108.681 252.628 103.878 251.827L103.871 251.826C102.942 251.657 101.621 251.292 100.828 250.713C100.436 250.427 100.043 249.99 100.082 249.399C100.117 248.851 100.513 248.383 101.101 247.974C101.153 247.887 101.184 247.793 101.187 247.702C101.19 247.602 101.162 247.471 101.024 247.317C100.728 246.984 99.9333 246.554 98.0722 246.349C98.0544 246.362 98.0403 246.374 98.0294 246.384C98.0929 246.46 98.2627 246.6 98.6573 246.773C99.0721 246.954 99.6859 247.15 100.569 247.346L100.515 248.331C99.7309 248.418 98.5058 248.445 97.3592 248.239C96.4714 248.079 95.5089 247.757 94.8967 247.105L94.8769 247.125C94.8118 247.281 94.7851 247.453 94.8138 247.617C94.8446 247.793 94.9464 248.003 95.2217 248.208C95.8066 248.645 97.1475 249.034 99.9247 248.835L99.9959 249.833C97.1731 250.035 95.514 249.674 94.6239 249.01C94.1617 248.665 93.9073 248.238 93.8287 247.789C93.8074 247.667 93.7996 247.547 93.803 247.43C92.5664 247.617 91.0409 247.924 89.8192 248.333C89.0743 248.583 88.4939 248.854 88.1549 249.127C87.9871 249.262 87.9153 249.368 87.8898 249.436C87.8775 249.469 87.8714 249.501 87.8821 249.545C88.1772 249.807 88.8108 250.202 89.6817 250.362C90.2821 250.376 90.8877 250.364 91.434 250.335L91.5584 251.325C90.8365 251.469 90.1707 251.459 89.5823 251.36C88.8648 251.341 88.1428 251.286 87.5205 251.174C86.9122 251.064 86.3093 250.887 85.9256 250.566C85.7201 250.395 85.5468 250.156 85.508 249.845C85.4697 249.538 85.5726 249.248 85.739 248.993C86.0588 248.503 86.715 247.982 87.7084 247.402L87.7512 247.377L87.7981 247.361C90.716 246.361 95.218 244.835 99.2413 243.509C103.243 242.191 106.824 241.052 107.862 240.844C108.758 240.665 109.814 240.089 110.799 239.4C111.693 238.774 112.485 238.085 112.981 237.604C113.072 236.755 113.242 235.509 113.483 234.311C113.612 233.668 113.762 233.032 113.934 232.474C114.099 231.94 114.293 231.443 114.527 231.084C114.84 230.465 115.645 229.173 116.701 228.282L116.575 228.156L116.549 228.118C114.707 225.448 114.638 219.955 119.483 212.012C124.345 204.041 134.226 193.465 152.623 180.46C154.385 178.432 155.796 174.214 153.969 168.154C152.128 162.048 146.998 154.084 135.642 144.72C112.773 125.863 113.188 109.594 116.513 103.61C121.417 92.6415 138.864 72.0935 169.545 77.3416C200.015 82.5537 219.707 96.8796 225.808 103.474C234.235 110.736 248.525 131.568 238.425 157.019L238.42 157.031C233.929 167.511 228.016 183.953 224.875 199.21C223.304 206.84 222.432 214.149 222.766 220.257C223.092 226.219 224.562 230.936 227.542 233.733C228.049 233.516 228.743 233.376 229.505 233.504C230.466 233.665 231.486 234.242 232.348 235.514C232.665 235.827 233.196 236.284 233.783 236.665C234.41 237.073 235.014 237.334 235.46 237.334H235.505L235.55 237.342C236.529 237.52 237.889 238.063 238.617 239.187C239.339 240.302 239.34 241.812 238.14 243.715C238.835 244.276 239.555 245.132 239.67 246.153C239.819 247.478 238.941 248.756 236.667 249.789L236.618 249.812L236.565 249.823C235.359 250.082 233.452 250.289 231.625 250.068C229.919 249.862 228.149 249.264 227.183 247.834ZM237.323 243.136C238.362 241.469 238.213 240.402 237.778 239.731C237.273 238.951 236.258 238.496 235.411 238.334C234.671 238.317 233.879 237.92 233.238 237.504C232.563 237.065 231.961 236.542 231.607 236.188L231.572 236.153L231.544 236.112C230.816 235.019 230.018 234.606 229.349 234.491C229.529 234.601 229.705 234.725 229.871 234.865C230.642 235.518 231.186 236.521 230.953 237.916C230.732 239.248 230.102 240.002 229.311 240.323C229.279 240.336 229.247 240.348 229.215 240.359C230.937 240.563 234.57 241.349 237.323 243.136ZM227.423 234.834H224.46V239.334H227.557L227.646 239.37C227.983 239.505 228.494 239.575 228.935 239.396C229.335 239.234 229.789 238.821 229.967 237.752C230.134 236.748 229.762 236.084 229.225 235.628C228.673 235.161 227.94 234.914 227.423 234.834ZM86.9916 250.013C86.8622 249.73 86.8421 249.434 86.9307 249.151C86.7614 249.302 86.6473 249.431 86.5768 249.539C86.5348 249.604 86.5154 249.65 86.5067 249.68C86.4985 249.708 86.5003 249.721 86.5003 249.721C86.5003 249.721 86.5004 249.725 86.5066 249.735C86.5138 249.747 86.5306 249.769 86.5664 249.799C86.6532 249.871 86.7945 249.944 86.9916 250.013ZM93.5809 246.452C93.8068 246.418 94.0234 246.387 94.2274 246.36L94.4166 246.171C94.136 246.265 93.8572 246.359 93.5809 246.452ZM114.241 251.42C114.343 251.267 114.467 251.121 114.607 250.981C114.697 250.89 114.756 250.798 114.778 250.731C114.788 250.7 114.788 250.686 114.788 250.683C114.788 250.683 114.787 250.682 114.784 250.678C114.772 250.659 114.691 250.565 114.388 250.479C114.091 250.395 113.636 250.334 112.96 250.334H112.927L105.56 249.352C105.484 249.401 105.418 249.454 105.372 249.507C105.337 249.545 105.321 249.575 105.313 249.593C105.31 249.601 105.309 249.606 105.308 249.609L105.308 249.612L105.308 249.613C105.308 249.613 105.308 249.615 105.309 249.618C105.309 249.618 105.31 249.622 105.311 249.625C105.314 249.633 105.32 249.646 105.332 249.664C105.357 249.702 105.407 249.761 105.503 249.835C105.694 249.982 106.026 250.159 106.574 250.345L114.156 251.356L114.241 251.42ZM160.756 249.845L161.059 249.53C161.809 248.245 162.038 247.216 161.936 246.396C161.798 245.289 161.03 244.403 159.693 243.706C158.354 243.007 156.519 242.542 154.43 242.263C150.259 241.706 145.226 241.911 141.517 242.331L140.095 242.492L141.107 241.481C141.257 241.33 141.347 241.178 141.399 241.054C141.425 240.991 141.441 240.937 141.45 240.896C141.457 240.866 141.459 240.847 141.46 240.839C141.46 240.835 141.46 240.834 141.46 240.834V240.171L142.098 240.353C143.312 240.701 144.364 240.348 145.217 239.73C146.033 239.137 146.638 238.317 146.96 237.714C146.897 230.59 141.314 227.282 138.189 226.409C137.931 226.755 137.59 227.031 137.272 227.24C136.846 227.519 136.406 227.713 136.118 227.809L132.803 228.914L132.584 228.663C132.04 228.041 131.086 227.257 130.018 226.91C128.985 226.574 127.858 226.644 126.814 227.688C126.272 228.23 126.127 228.656 126.135 228.967C126.143 229.282 126.31 229.606 126.655 229.935C127.361 230.608 128.61 231.106 129.582 231.349L130.893 231.677L129.684 232.281C129.337 232.455 128.77 232.713 128.183 232.929C127.748 233.088 127.259 233.242 126.83 233.305C126.407 234.549 125.781 236.265 125.157 237.719C124.819 238.506 124.475 239.233 124.158 239.769C124.001 240.034 123.838 240.273 123.676 240.452C123.594 240.541 123.5 240.629 123.393 240.698C123.355 240.722 123.311 240.747 123.263 240.768C122.81 241.408 122.255 242.431 121.97 243.557C121.68 244.702 121.683 245.886 122.272 246.89C124.49 247.359 127.948 247.717 131.339 247.313C134.848 246.894 138.175 245.673 140.053 243.044L140.397 242.563L140.814 242.981C142.886 245.053 149.797 249.439 160.479 249.835C160.571 249.838 160.663 249.842 160.756 249.845ZM162.848 245.834H168.595C168.053 244.757 167.605 243.281 167.661 241.667C167.728 239.729 168.522 237.623 170.684 235.812C169.09 234.323 167.39 232.014 167.113 229.476C166.959 228.066 167.247 226.597 168.218 225.195C169.114 223.9 170.574 222.688 172.744 221.621C172.259 220.838 171.612 219.851 170.984 219.008C170.602 218.494 170.237 218.047 169.926 217.732C169.771 217.575 169.641 217.463 169.539 217.394C169.498 217.366 169.469 217.35 169.452 217.342L159.532 218.908L159.465 218.4C159.3 217.163 158.978 215.258 158.551 213.569C158.337 212.724 158.1 211.947 157.848 211.34C157.723 211.036 157.598 210.786 157.476 210.595C157.351 210.398 157.25 210.295 157.183 210.25L157.04 210.155L156.601 208.838C153.515 208.908 148.968 209.87 144.963 212.55C140.987 215.211 137.53 219.575 136.566 226.502C136.618 226.471 136.671 226.438 136.724 226.404C137.079 226.17 137.37 225.897 137.513 225.611L137.69 225.257L138.075 225.348C141.353 226.12 147.96 229.693 147.96 237.834V237.952L147.907 238.058C147.546 238.781 146.823 239.799 145.804 240.539C145.549 240.724 145.274 240.892 144.981 241.034C148.073 240.855 151.528 240.867 154.562 241.272C156.7 241.557 158.667 242.042 160.156 242.819C161.504 243.522 162.521 244.501 162.848 245.834ZM173.876 221.555L178.442 227.643L178.457 227.779C178.62 229.246 179.107 231.253 180 232.58C180.443 233.239 180.953 233.682 181.525 233.852C182.081 234.018 182.79 233.953 183.703 233.405L183.727 233.391L183.753 233.379C184.58 233.004 185.381 232.238 185.398 231.164C185.415 230.071 184.63 228.412 181.665 226.237L181.549 226.153L181.496 226.019C180.664 223.928 179.34 220.636 178.258 218.026C177.824 216.979 177.43 216.044 177.123 215.341C176.969 214.989 176.839 214.699 176.736 214.482C176.685 214.374 176.642 214.288 176.608 214.223C176.573 214.156 176.557 214.13 176.555 214.127L176.551 214.121C175.976 213.299 175.039 212.068 174.104 211.047C173.636 210.535 173.179 210.089 172.776 209.775C172.575 209.618 172.398 209.503 172.249 209.428C172.094 209.351 172.002 209.334 171.96 209.334H171.95L171.94 209.334C169.866 209.251 166.655 209.201 163.769 209.321C162.324 209.381 160.972 209.484 159.888 209.643C159.345 209.723 158.88 209.815 158.508 209.921C158.425 209.945 158.348 209.968 158.278 209.992C158.292 210.014 158.307 210.036 158.321 210.059C158.483 210.315 158.633 210.622 158.772 210.957C159.05 211.628 159.301 212.457 159.52 213.324C159.904 214.842 160.203 216.519 160.385 217.761L169.421 216.334H169.46C169.715 216.334 169.941 216.458 170.102 216.567C170.278 216.687 170.459 216.849 170.638 217.03C170.996 217.393 171.394 217.883 171.786 218.411C172.568 219.461 173.37 220.713 173.876 221.555ZM171.508 236.43C169.426 238.092 168.719 239.993 168.66 241.702C168.599 243.454 169.221 245.038 169.825 245.978C177.936 251.557 200.292 259.541 225.202 246.905C225.302 246.829 225.377 246.694 225.373 246.411C225.368 246.099 225.263 245.691 225.072 245.223C224.694 244.293 224.046 243.282 223.56 242.634L223.541 242.609L223.525 242.581C223.261 242.114 222.426 241.22 221.235 241.246C210.806 244.242 190.094 246.494 171.508 236.43ZM226.335 246.834H227.46C227.894 246.834 228.585 246.723 229.199 246.393C229.796 246.074 230.298 245.564 230.466 244.754C230.534 244.175 230.41 243.45 229.93 242.998C229.471 242.566 228.525 242.237 226.604 242.813L226.534 242.834H224.918C225.31 243.437 225.717 244.153 225.998 244.846C226.208 245.361 226.365 245.903 226.373 246.395C226.375 246.541 226.364 246.69 226.335 246.834ZM178.971 217.135C180.367 216.411 181.836 215.788 182.942 215.358C181.548 214.941 179.596 214.478 177.782 214.362C177.86 214.532 177.946 214.727 178.039 214.941C178.299 215.535 178.619 216.291 178.971 217.135ZM166.204 251.453C166.204 251.453 166.202 251.452 166.198 251.449C166.203 251.452 166.204 251.453 166.204 251.453ZM186.633 119.401C183.424 121.939 179.749 125.835 177.341 128.659L177.292 128.716L177.229 128.756C176.163 129.434 175.793 129.988 175.72 130.374C175.654 130.722 175.805 131.096 176.269 131.512C176.732 131.927 177.427 132.305 178.216 132.624C178.949 132.919 179.733 133.153 180.427 133.314C188.489 130.343 192.095 127.132 193.411 124.428C194.712 121.752 193.814 119.471 192.596 118.177L192.503 118.078L192.473 117.947C192.344 117.386 192.12 117.124 191.891 117.001C191.648 116.871 191.284 116.836 190.756 116.969C189.689 117.239 188.251 118.122 186.633 119.401ZM193.414 117.589C193.234 116.915 192.892 116.402 192.362 116.119C191.812 115.825 191.162 115.835 190.511 115.999C189.222 116.325 187.641 117.33 186.013 118.617C182.751 121.196 179.054 125.114 176.628 127.953C175.532 128.663 174.887 129.4 174.738 130.188C174.579 131.03 175.015 131.731 175.601 132.256C176.189 132.783 177.007 133.214 177.842 133.551C178.684 133.891 179.58 134.151 180.352 134.322L180.495 134.354L180.632 134.304C188.872 131.289 192.816 127.937 194.31 124.865C195.794 121.814 194.816 119.144 193.414 117.589ZM137.915 127.834H137.96C138.869 127.834 140.057 128.204 141.335 128.749C142.63 129.302 144.08 130.062 145.535 130.901C148.446 132.579 151.411 134.589 153.254 135.93L153.333 135.987L153.384 136.069C154.458 137.787 154.458 139.223 153.907 140.321C153.376 141.379 152.381 142.023 151.636 142.302L151.527 142.343L151.411 142.332C149.326 142.123 146.597 141.136 144.07 140.016C141.53 138.891 139.138 137.607 137.707 136.765L137.625 136.717L137.567 136.643C135.34 133.808 134.758 131.727 135.138 130.236C135.525 128.718 136.844 128.029 137.871 127.842L137.915 127.834ZM138.005 128.835C137.211 128.992 136.357 129.502 136.107 130.483C135.848 131.499 136.175 133.229 138.295 135.951C139.706 136.777 142.022 138.015 144.475 139.102C146.939 140.193 149.488 141.107 151.391 141.324C151.961 141.085 152.651 140.594 153.013 139.872C153.372 139.158 153.459 138.12 152.586 136.681C150.758 135.355 147.867 133.399 145.036 131.767C143.599 130.939 142.187 130.2 140.942 129.669C139.707 129.142 138.696 128.847 138.005 128.835ZM173.905 147.837C188.396 146.227 194.003 151.508 194.94 154.693L195.232 155.685L194.273 155.298C175.729 147.801 164.614 157.109 161.391 162.588L160.884 163.451L160.499 162.527C159.623 160.424 159.245 157.151 161.005 154.179C162.773 151.194 166.617 148.647 173.905 147.837ZM193.492 153.921C191.856 151.276 186.516 147.442 174.015 148.831C166.903 149.621 163.414 152.074 161.865 154.689C160.549 156.912 160.577 159.349 161.095 161.195C165.044 155.456 176.041 147.399 193.492 153.921Z" fill="#0C0D20"/>
<path d="M222.985 240.706C223.358 240.582 223.713 240.458 224.05 240.334H227.309L228.026 240.812L226.322 241.834H224.232C223.976 241.478 223.554 241.034 222.985 240.706Z" fill="#0C0D20"/>
<path fill-rule="evenodd" clip-rule="evenodd" d="M126.879 237.515C127.147 237.448 127.418 237.611 127.485 237.879C127.949 239.735 126.905 240.998 126.277 241.416C126.048 241.569 125.737 241.507 125.584 241.277C125.431 241.048 125.493 240.737 125.723 240.584C126.095 240.336 126.851 239.465 126.515 238.121C126.448 237.853 126.611 237.582 126.879 237.515ZM135.5 237.5C135.776 237.5 136 237.724 136 238C136 238.53 136.341 240.006 137.8 241.1C138.021 241.266 138.066 241.579 137.9 241.8C137.734 242.021 137.421 242.066 137.2 241.9C135.459 240.594 135 238.804 135 238C135 237.724 135.224 237.5 135.5 237.5ZM130.416 238.723C130.569 238.953 130.507 239.263 130.277 239.416L128.777 240.416C128.548 240.569 128.237 240.507 128.084 240.277C127.931 240.048 127.993 239.737 128.223 239.584L129.723 238.584C129.952 238.431 130.263 238.493 130.416 238.723ZM135.328 241.622C135.437 241.717 135.5 241.855 135.5 242V243.5C135.5 243.657 135.426 243.805 135.301 243.899C135.176 243.994 135.014 244.024 134.863 243.981L131.363 242.981C131.136 242.916 130.985 242.701 131.001 242.466C131.017 242.231 131.196 242.039 131.429 242.005L134.929 241.505C135.073 241.485 135.218 241.527 135.328 241.622ZM133.892 242.663L134.5 242.837V242.577L133.892 242.663ZM126.026 244.842C126.113 244.58 126.396 244.438 126.658 244.526C126.952 244.624 127.384 244.824 127.753 245.125C128.114 245.418 128.5 245.879 128.5 246.5C128.5 246.776 128.276 247 128 247C127.724 247 127.5 246.776 127.5 246.5C127.5 246.321 127.386 246.115 127.122 245.901C126.866 245.692 126.548 245.543 126.342 245.474C126.08 245.387 125.938 245.104 126.026 244.842ZM131.974 244.842C132.062 245.104 131.92 245.387 131.658 245.474L130.158 245.974C129.896 246.062 129.613 245.92 129.526 245.658C129.438 245.396 129.58 245.113 129.842 245.026L131.342 244.526C131.604 244.438 131.887 244.58 131.974 244.842Z" fill="#0C0D20"/>
</g>
<rect x="2" y="2" width="324" height="279" rx="8" stroke="black" stroke-width="4"/>
<defs>
<radialGradient id="paint0_radial_708_505" cx="0" cy="0" r="1" gradientUnits="userSpaceOnUse" gradientTransform="translate(164 141.5) rotate(90) scale(141.5 164)">
<stop stop-color="white"/>
<stop offset="0.453125"/>
</radialGradient>
<clipPath id="clip0_708_505">
<rect width="328" height="283" rx="10" fill="white"/>
</clipPath>
</defs>
</svg>
