<svg width="409" height="242" viewBox="0 0 409 242" fill="none" xmlns="http://www.w3.org/2000/svg">
<g clip-path="url(#clip0_581_978)">
<path d="M204 -2V248" stroke="#F9FFFA" stroke-width="10"/>
<path d="M-3 123H412.5" stroke="#F9FFFA" stroke-width="10"/>
<path d="M36.3 46.85C36.3 45.4833 36.7667 44.4333 37.7 43.7C38.6667 42.9333 40 42.55 41.7 42.55V59.35L59.45 42.55C60.0833 43.05 60.6 43.6 61 44.2C61.4333 44.8 61.65 45.3333 61.65 45.8C61.65 46.6333 61.0833 47.5667 59.95 48.6L48.85 59.1L63.5 76.9C63.0667 77.4 62.5667 77.7833 62 78.05C61.4667 78.3167 60.9167 78.45 60.35 78.45C58.9167 78.45 57.7833 77.9333 56.95 76.9L45.05 62.5L41.7 65.65V74.35C41.7 75.75 41.2667 76.7833 40.4 77.45C39.5333 78.1167 38.1667 78.45 36.3 78.45V46.85ZM90.1172 74.35C90.1172 77.0833 88.5172 78.45 85.3172 78.45V75.3C85.6505 75 86.0172 74.5167 86.4172 73.85L86.2172 73.65C85.1839 75.1167 83.9339 76.2833 82.4672 77.15C81.0005 78.0167 79.3505 78.45 77.5172 78.45C75.7505 78.45 74.1839 78.0667 72.8172 77.3C71.4505 76.5333 70.3839 75.4667 69.6172 74.1C68.8505 72.7 68.4672 71.1333 68.4672 69.4V55.95C68.4672 54.75 68.8672 53.8833 69.6672 53.35C70.5005 52.8167 71.7672 52.55 73.4672 52.55V69.15C73.4672 70.65 73.9172 71.85 74.8172 72.75C75.7172 73.65 77.0339 74.1 78.7672 74.1C80.5672 74.1 82.0839 73.55 83.3172 72.45C84.5505 71.35 85.1672 70 85.1672 68.4V55.95C85.1672 54.75 85.5672 53.8833 86.3672 53.35C87.1672 52.8167 88.4172 52.55 90.1172 52.55V74.35ZM104.3 78.45C101.734 78.45 99.8171 77.75 98.5504 76.35C97.2837 74.9167 96.6504 73.05 96.6504 70.75V45.95C96.6504 44.75 97.0504 43.8833 97.8504 43.35C98.6837 42.8167 99.9504 42.55 101.65 42.55V70.55C101.65 71.8167 101.9 72.7333 102.4 73.3C102.934 73.8333 103.8 74.1 105 74.1C106.234 74.1 107.4 73.7833 108.5 73.15C109 73.7167 109.25 74.3833 109.25 75.15C109.25 76.0167 108.8 76.7833 107.9 77.45C107.034 78.1167 105.834 78.45 104.3 78.45ZM114.181 56.6C114.181 53.9 115.764 52.55 118.931 52.55V55.7C118.598 56.0333 118.231 56.5 117.831 57.1L118.081 57.3C119.148 55.7667 120.264 54.6 121.431 53.8C122.598 52.9667 123.981 52.55 125.581 52.55C128.581 52.55 130.631 53.9833 131.731 56.85C133.598 53.9833 136.131 52.55 139.331 52.55C141.664 52.55 143.481 53.35 144.781 54.95C146.114 56.55 146.781 58.6333 146.781 61.2V75.05C146.781 76.2167 146.364 77.0833 145.531 77.65C144.731 78.1833 143.498 78.45 141.831 78.45V61.55C141.831 58.3833 140.548 56.8 137.981 56.8C136.581 56.8 135.381 57.2833 134.381 58.25C133.414 59.1833 132.931 60.5 132.931 62.2V75.05C132.931 76.25 132.531 77.1167 131.731 77.65C130.931 78.1833 129.714 78.45 128.081 78.45V61.55C128.081 60.0833 127.764 58.9333 127.131 58.1C126.498 57.2333 125.514 56.8 124.181 56.8C122.714 56.8 121.498 57.3333 120.531 58.4C119.598 59.4333 119.131 60.75 119.131 62.35V75.05C119.131 76.2167 118.714 77.0833 117.881 77.65C117.081 78.1833 115.848 78.45 114.181 78.45V56.6ZM156.55 49.25C155.55 49.25 154.7 48.9333 154 48.3C153.3 47.6667 152.95 46.8667 152.95 45.9C152.95 44.9333 153.3 44.1333 154 43.5C154.7 42.8667 155.55 42.55 156.55 42.55C157.55 42.55 158.384 42.8667 159.05 43.5C159.75 44.1333 160.1 44.9333 160.1 45.9C160.1 46.8667 159.75 47.6667 159.05 48.3C158.384 48.9333 157.55 49.25 156.55 49.25ZM154.05 55.95C154.05 54.75 154.45 53.8833 155.25 53.35C156.084 52.8167 157.334 52.55 159 52.55V75.05C159 76.2167 158.584 77.0833 157.75 77.65C156.95 78.1833 155.717 78.45 154.05 78.45V55.95Z" fill="#C03B28"/>
<path d="M247.3 46.85C247.3 45.4833 247.767 44.4333 248.7 43.7C249.667 42.9333 251 42.55 252.7 42.55V59.35L270.45 42.55C271.083 43.05 271.6 43.6 272 44.2C272.433 44.8 272.65 45.3333 272.65 45.8C272.65 46.6333 272.083 47.5667 270.95 48.6L259.85 59.1L274.5 76.9C274.067 77.4 273.567 77.7833 273 78.05C272.467 78.3167 271.917 78.45 271.35 78.45C269.917 78.45 268.783 77.9333 267.95 76.9L256.05 62.5L252.7 65.65V74.35C252.7 75.75 252.267 76.7833 251.4 77.45C250.533 78.1167 249.167 78.45 247.3 78.45V46.85ZM301.117 74.35C301.117 77.0833 299.517 78.45 296.317 78.45V75.3C296.651 75 297.017 74.5167 297.417 73.85L297.217 73.65C296.184 75.1167 294.934 76.2833 293.467 77.15C292.001 78.0167 290.351 78.45 288.517 78.45C286.751 78.45 285.184 78.0667 283.817 77.3C282.451 76.5333 281.384 75.4667 280.617 74.1C279.851 72.7 279.467 71.1333 279.467 69.4V55.95C279.467 54.75 279.867 53.8833 280.667 53.35C281.501 52.8167 282.767 52.55 284.467 52.55V69.15C284.467 70.65 284.917 71.85 285.817 72.75C286.717 73.65 288.034 74.1 289.767 74.1C291.567 74.1 293.084 73.55 294.317 72.45C295.551 71.35 296.167 70 296.167 68.4V55.95C296.167 54.75 296.567 53.8833 297.367 53.35C298.167 52.8167 299.417 52.55 301.117 52.55V74.35ZM315.3 78.45C312.734 78.45 310.817 77.75 309.55 76.35C308.284 74.9167 307.65 73.05 307.65 70.75V45.95C307.65 44.75 308.05 43.8833 308.85 43.35C309.684 42.8167 310.95 42.55 312.65 42.55V70.55C312.65 71.8167 312.9 72.7333 313.4 73.3C313.934 73.8333 314.8 74.1 316 74.1C317.234 74.1 318.4 73.7833 319.5 73.15C320 73.7167 320.25 74.3833 320.25 75.15C320.25 76.0167 319.8 76.7833 318.9 77.45C318.034 78.1167 316.834 78.45 315.3 78.45ZM325.181 56.6C325.181 53.9 326.764 52.55 329.931 52.55V55.7C329.598 56.0333 329.231 56.5 328.831 57.1L329.081 57.3C330.148 55.7667 331.264 54.6 332.431 53.8C333.598 52.9667 334.981 52.55 336.581 52.55C339.581 52.55 341.631 53.9833 342.731 56.85C344.598 53.9833 347.131 52.55 350.331 52.55C352.664 52.55 354.481 53.35 355.781 54.95C357.114 56.55 357.781 58.6333 357.781 61.2V75.05C357.781 76.2167 357.364 77.0833 356.531 77.65C355.731 78.1833 354.498 78.45 352.831 78.45V61.55C352.831 58.3833 351.548 56.8 348.981 56.8C347.581 56.8 346.381 57.2833 345.381 58.25C344.414 59.1833 343.931 60.5 343.931 62.2V75.05C343.931 76.25 343.531 77.1167 342.731 77.65C341.931 78.1833 340.714 78.45 339.081 78.45V61.55C339.081 60.0833 338.764 58.9333 338.131 58.1C337.498 57.2333 336.514 56.8 335.181 56.8C333.714 56.8 332.498 57.3333 331.531 58.4C330.598 59.4333 330.131 60.75 330.131 62.35V75.05C330.131 76.2167 329.714 77.0833 328.881 77.65C328.081 78.1833 326.848 78.45 325.181 78.45V56.6ZM367.55 49.25C366.55 49.25 365.7 48.9333 365 48.3C364.3 47.6667 363.95 46.8667 363.95 45.9C363.95 44.9333 364.3 44.1333 365 43.5C365.7 42.8667 366.55 42.55 367.55 42.55C368.55 42.55 369.384 42.8667 370.05 43.5C370.75 44.1333 371.1 44.9333 371.1 45.9C371.1 46.8667 370.75 47.6667 370.05 48.3C369.384 48.9333 368.55 49.25 367.55 49.25ZM365.05 55.95C365.05 54.75 365.45 53.8833 366.25 53.35C367.084 52.8167 368.334 52.55 370 52.55V75.05C370 76.2167 369.584 77.0833 368.75 77.65C367.95 78.1833 366.717 78.45 365.05 78.45V55.95Z" fill="#F38C23"/>
<path d="M248.3 171.85C248.3 170.483 248.767 169.433 249.7 168.7C250.667 167.933 252 167.55 253.7 167.55V184.35L271.45 167.55C272.083 168.05 272.6 168.6 273 169.2C273.433 169.8 273.65 170.333 273.65 170.8C273.65 171.633 273.083 172.567 271.95 173.6L260.85 184.1L275.5 201.9C275.067 202.4 274.567 202.783 274 203.05C273.467 203.317 272.917 203.45 272.35 203.45C270.917 203.45 269.783 202.933 268.95 201.9L257.05 187.5L253.7 190.65V199.35C253.7 200.75 253.267 201.783 252.4 202.45C251.533 203.117 250.167 203.45 248.3 203.45V171.85ZM302.117 199.35C302.117 202.083 300.517 203.45 297.317 203.45V200.3C297.651 200 298.017 199.517 298.417 198.85L298.217 198.65C297.184 200.117 295.934 201.283 294.467 202.15C293.001 203.017 291.351 203.45 289.517 203.45C287.751 203.45 286.184 203.067 284.817 202.3C283.451 201.533 282.384 200.467 281.617 199.1C280.851 197.7 280.467 196.133 280.467 194.4V180.95C280.467 179.75 280.867 178.883 281.667 178.35C282.501 177.817 283.767 177.55 285.467 177.55V194.15C285.467 195.65 285.917 196.85 286.817 197.75C287.717 198.65 289.034 199.1 290.767 199.1C292.567 199.1 294.084 198.55 295.317 197.45C296.551 196.35 297.167 195 297.167 193.4V180.95C297.167 179.75 297.567 178.883 298.367 178.35C299.167 177.817 300.417 177.55 302.117 177.55V199.35ZM316.3 203.45C313.734 203.45 311.817 202.75 310.55 201.35C309.284 199.917 308.65 198.05 308.65 195.75V170.95C308.65 169.75 309.05 168.883 309.85 168.35C310.684 167.817 311.95 167.55 313.65 167.55V195.55C313.65 196.817 313.9 197.733 314.4 198.3C314.934 198.833 315.8 199.1 317 199.1C318.234 199.1 319.4 198.783 320.5 198.15C321 198.717 321.25 199.383 321.25 200.15C321.25 201.017 320.8 201.783 319.9 202.45C319.034 203.117 317.834 203.45 316.3 203.45ZM326.181 181.6C326.181 178.9 327.764 177.55 330.931 177.55V180.7C330.598 181.033 330.231 181.5 329.831 182.1L330.081 182.3C331.148 180.767 332.264 179.6 333.431 178.8C334.598 177.967 335.981 177.55 337.581 177.55C340.581 177.55 342.631 178.983 343.731 181.85C345.598 178.983 348.131 177.55 351.331 177.55C353.664 177.55 355.481 178.35 356.781 179.95C358.114 181.55 358.781 183.633 358.781 186.2V200.05C358.781 201.217 358.364 202.083 357.531 202.65C356.731 203.183 355.498 203.45 353.831 203.45V186.55C353.831 183.383 352.548 181.8 349.981 181.8C348.581 181.8 347.381 182.283 346.381 183.25C345.414 184.183 344.931 185.5 344.931 187.2V200.05C344.931 201.25 344.531 202.117 343.731 202.65C342.931 203.183 341.714 203.45 340.081 203.45V186.55C340.081 185.083 339.764 183.933 339.131 183.1C338.498 182.233 337.514 181.8 336.181 181.8C334.714 181.8 333.498 182.333 332.531 183.4C331.598 184.433 331.131 185.75 331.131 187.35V200.05C331.131 201.217 330.714 202.083 329.881 202.65C329.081 203.183 327.848 203.45 326.181 203.45V181.6ZM368.55 174.25C367.55 174.25 366.7 173.933 366 173.3C365.3 172.667 364.95 171.867 364.95 170.9C364.95 169.933 365.3 169.133 366 168.5C366.7 167.867 367.55 167.55 368.55 167.55C369.55 167.55 370.384 167.867 371.05 168.5C371.75 169.133 372.1 169.933 372.1 170.9C372.1 171.867 371.75 172.667 371.05 173.3C370.384 173.933 369.55 174.25 368.55 174.25ZM366.05 180.95C366.05 179.75 366.45 178.883 367.25 178.35C368.084 177.817 369.334 177.55 371 177.55V200.05C371 201.217 370.584 202.083 369.75 202.65C368.95 203.183 367.717 203.45 366.05 203.45V180.95Z" fill="#A49FC5"/>
<path d="M37.3 171.85C37.3 170.483 37.7667 169.433 38.7 168.7C39.6667 167.933 41 167.55 42.7 167.55V184.35L60.45 167.55C61.0833 168.05 61.6 168.6 62 169.2C62.4333 169.8 62.65 170.333 62.65 170.8C62.65 171.633 62.0833 172.567 60.95 173.6L49.85 184.1L64.5 201.9C64.0667 202.4 63.5667 202.783 63 203.05C62.4667 203.317 61.9167 203.45 61.35 203.45C59.9167 203.45 58.7833 202.933 57.95 201.9L46.05 187.5L42.7 190.65V199.35C42.7 200.75 42.2667 201.783 41.4 202.45C40.5333 203.117 39.1667 203.45 37.3 203.45V171.85ZM91.1172 199.35C91.1172 202.083 89.5172 203.45 86.3172 203.45V200.3C86.6505 200 87.0172 199.517 87.4172 198.85L87.2172 198.65C86.1839 200.117 84.9339 201.283 83.4672 202.15C82.0005 203.017 80.3505 203.45 78.5172 203.45C76.7505 203.45 75.1839 203.067 73.8172 202.3C72.4505 201.533 71.3839 200.467 70.6172 199.1C69.8505 197.7 69.4672 196.133 69.4672 194.4V180.95C69.4672 179.75 69.8672 178.883 70.6672 178.35C71.5005 177.817 72.7672 177.55 74.4672 177.55V194.15C74.4672 195.65 74.9172 196.85 75.8172 197.75C76.7172 198.65 78.0339 199.1 79.7672 199.1C81.5672 199.1 83.0839 198.55 84.3172 197.45C85.5505 196.35 86.1672 195 86.1672 193.4V180.95C86.1672 179.75 86.5672 178.883 87.3672 178.35C88.1672 177.817 89.4172 177.55 91.1172 177.55V199.35ZM105.3 203.45C102.734 203.45 100.817 202.75 99.5504 201.35C98.2837 199.917 97.6504 198.05 97.6504 195.75V170.95C97.6504 169.75 98.0504 168.883 98.8504 168.35C99.6837 167.817 100.95 167.55 102.65 167.55V195.55C102.65 196.817 102.9 197.733 103.4 198.3C103.934 198.833 104.8 199.1 106 199.1C107.234 199.1 108.4 198.783 109.5 198.15C110 198.717 110.25 199.383 110.25 200.15C110.25 201.017 109.8 201.783 108.9 202.45C108.034 203.117 106.834 203.45 105.3 203.45ZM115.181 181.6C115.181 178.9 116.764 177.55 119.931 177.55V180.7C119.598 181.033 119.231 181.5 118.831 182.1L119.081 182.3C120.148 180.767 121.264 179.6 122.431 178.8C123.598 177.967 124.981 177.55 126.581 177.55C129.581 177.55 131.631 178.983 132.731 181.85C134.598 178.983 137.131 177.55 140.331 177.55C142.664 177.55 144.481 178.35 145.781 179.95C147.114 181.55 147.781 183.633 147.781 186.2V200.05C147.781 201.217 147.364 202.083 146.531 202.65C145.731 203.183 144.498 203.45 142.831 203.45V186.55C142.831 183.383 141.548 181.8 138.981 181.8C137.581 181.8 136.381 182.283 135.381 183.25C134.414 184.183 133.931 185.5 133.931 187.2V200.05C133.931 201.25 133.531 202.117 132.731 202.65C131.931 203.183 130.714 203.45 129.081 203.45V186.55C129.081 185.083 128.764 183.933 128.131 183.1C127.498 182.233 126.514 181.8 125.181 181.8C123.714 181.8 122.498 182.333 121.531 183.4C120.598 184.433 120.131 185.75 120.131 187.35V200.05C120.131 201.217 119.714 202.083 118.881 202.65C118.081 203.183 116.848 203.45 115.181 203.45V181.6ZM157.55 174.25C156.55 174.25 155.7 173.933 155 173.3C154.3 172.667 153.95 171.867 153.95 170.9C153.95 169.933 154.3 169.133 155 168.5C155.7 167.867 156.55 167.55 157.55 167.55C158.55 167.55 159.384 167.867 160.05 168.5C160.75 169.133 161.1 169.933 161.1 170.9C161.1 171.867 160.75 172.667 160.05 173.3C159.384 173.933 158.55 174.25 157.55 174.25ZM155.05 180.95C155.05 179.75 155.45 178.883 156.25 178.35C157.084 177.817 158.334 177.55 160 177.55V200.05C160 201.217 159.584 202.083 158.75 202.65C157.95 203.183 156.717 203.45 155.05 203.45V180.95Z" fill="#78ABC6"/>
<path d="M81.6766 78.2C81.6766 72.7333 83.5432 68.5333 87.2766 65.6C91.0099 62.6667 96.3432 61.2 103.277 61.2V123H170.477V78.2C170.477 72.6 172.277 68.4 175.877 65.6C179.61 62.6667 184.943 61.2 191.877 61.2V187.8C191.877 193.267 190.01 197.467 186.277 200.4C182.677 203.333 177.41 204.8 170.477 204.8V141.8H103.277V187.8C103.277 193.267 101.41 197.467 97.6766 200.4C93.9432 203.333 88.6099 204.8 81.6766 204.8V78.2ZM320.595 208.8C316.462 208.8 312.729 207.8 309.395 205.8C306.062 203.933 303.329 201.333 301.195 198C292.529 202.533 282.795 204.8 271.995 204.8C260.929 204.8 250.929 202.667 241.995 198.4C233.195 194 226.262 188 221.195 180.4C216.262 172.8 213.795 164.4 213.795 155.2V110.4C213.795 101.2 216.262 92.8667 221.195 85.4C226.262 77.9333 233.195 72.0667 241.995 67.8C250.929 63.4 260.929 61.2 271.995 61.2C283.062 61.2 292.995 63.4 301.795 67.8C310.729 72.0667 317.729 77.9333 322.795 85.4C327.862 92.8667 330.395 101.2 330.395 110.4V155.2C330.395 161.733 329.062 167.867 326.395 173.6C323.862 179.333 320.262 184.267 315.595 188.4C317.595 190.933 320.129 192.867 323.195 194.2C326.262 195.4 329.595 195.867 333.195 195.6C333.195 200.133 332.129 203.467 329.995 205.6C327.995 207.733 324.862 208.8 320.595 208.8ZM302.795 171.8C307.062 167.8 309.195 162.2 309.195 155V110.8C309.195 101.333 305.862 93.8 299.195 88.2C292.662 82.6 283.595 79.8 271.995 79.8C260.395 79.8 251.262 82.6 244.595 88.2C238.062 93.8 234.795 101.333 234.795 110.8V147.4C241.062 145.4 246.662 144.4 251.595 144.4C262.529 144.4 271.995 146.533 279.995 150.8C288.129 154.933 295.729 161.933 302.795 171.8ZM271.995 186.2C278.662 186.2 284.795 185.133 290.395 183C284.795 174.333 278.995 168.4 272.995 165.2C267.129 162 259.662 160.4 250.595 160.4C246.195 160.4 241.329 161.333 235.995 163.2C237.862 170.267 241.929 175.867 248.195 180C254.462 184.133 262.395 186.2 271.995 186.2Z" fill="#01001C"/>
<path d="M103.277 61.2H104.277V60.2H103.277V61.2ZM103.277 123H102.277V124H103.277V123ZM170.477 123V124H171.477V123H170.477ZM175.877 65.6L176.491 66.3894L176.494 66.3863L175.877 65.6ZM191.877 61.2H192.877V60.2H191.877V61.2ZM186.277 200.4L185.659 199.614L185.652 199.619L185.645 199.625L186.277 200.4ZM170.477 204.8H169.477V205.8H170.477V204.8ZM170.477 141.8H171.477V140.8H170.477V141.8ZM103.277 141.8V140.8H102.277V141.8H103.277ZM97.6766 200.4L98.2944 201.186L97.6766 200.4ZM81.6766 204.8H80.6766V205.8H81.6766V204.8ZM82.6766 78.2C82.6766 72.9877 84.4408 69.0999 87.8944 66.3863L86.6587 64.8137C82.6457 67.9668 80.6766 72.4789 80.6766 78.2H82.6766ZM87.8944 66.3863C91.3866 63.6424 96.4677 62.2 103.277 62.2V60.2C96.2188 60.2 90.6332 61.6909 86.6587 64.8137L87.8944 66.3863ZM102.277 61.2V123H104.277V61.2H102.277ZM103.277 124H170.477V122H103.277V124ZM171.477 123V78.2H169.477V123H171.477ZM171.477 78.2C171.477 72.8306 173.19 68.9567 176.491 66.3893L175.263 64.8106C171.363 67.8433 169.477 72.3694 169.477 78.2H171.477ZM176.494 66.3863C179.987 63.6424 185.068 62.2 191.877 62.2V60.2C184.819 60.2 179.233 61.6909 175.259 64.8137L176.494 66.3863ZM190.877 61.2V187.8H192.877V61.2H190.877ZM190.877 187.8C190.877 193.012 189.112 196.9 185.659 199.614L186.894 201.186C190.907 198.033 192.877 193.521 192.877 187.8H190.877ZM185.645 199.625C182.293 202.356 177.289 203.8 170.477 203.8V205.8C177.531 205.8 183.06 204.311 186.908 201.175L185.645 199.625ZM171.477 204.8V141.8H169.477V204.8H171.477ZM170.477 140.8H103.277V142.8H170.477V140.8ZM102.277 141.8V187.8H104.277V141.8H102.277ZM102.277 187.8C102.277 193.012 100.512 196.9 97.0587 199.614L98.2944 201.186C102.307 198.033 104.277 193.521 104.277 187.8H102.277ZM97.0587 199.614C93.5665 202.358 88.4854 203.8 81.6766 203.8V205.8C88.7343 205.8 94.3199 204.309 98.2944 201.186L97.0587 199.614ZM82.6766 204.8V78.2H80.6766V204.8H82.6766ZM309.395 205.8L309.91 204.943L309.897 204.935L309.884 204.927L309.395 205.8ZM301.195 198L302.038 197.461L301.544 196.689L300.732 197.114L301.195 198ZM241.995 198.4L241.548 199.294L241.556 199.298L241.564 199.302L241.995 198.4ZM221.195 180.4L220.356 180.945L220.363 180.955L221.195 180.4ZM221.195 85.4L220.368 84.8385L220.361 84.8487L221.195 85.4ZM241.995 67.8L242.432 68.6998L242.437 68.6971L241.995 67.8ZM301.795 67.8L301.348 68.6944L301.356 68.6985L301.364 68.7023L301.795 67.8ZM322.795 85.4L321.968 85.9615L322.795 85.4ZM326.395 173.6L325.489 173.178L325.485 173.187L325.481 173.196L326.395 173.6ZM315.595 188.4L314.932 187.651L314.225 188.278L314.81 189.02L315.595 188.4ZM323.195 194.2L322.797 195.117L322.814 195.124L322.831 195.131L323.195 194.2ZM333.195 195.6H334.195V194.523L333.121 194.603L333.195 195.6ZM329.995 205.6L329.288 204.893L329.277 204.904L329.266 204.916L329.995 205.6ZM302.795 171.8L301.982 172.382L302.647 173.31L303.479 172.53L302.795 171.8ZM299.195 88.2L298.544 88.9593L298.552 88.9657L299.195 88.2ZM244.595 88.2L243.952 87.4343L243.945 87.4407L244.595 88.2ZM234.795 147.4H233.795V148.769L235.099 148.353L234.795 147.4ZM279.995 150.8L279.525 151.682L279.533 151.687L279.542 151.691L279.995 150.8ZM290.395 183L290.751 183.934L291.906 183.495L291.235 182.457L290.395 183ZM272.995 165.2L272.516 166.078L272.525 166.082L272.995 165.2ZM235.995 163.2L235.665 162.256L234.792 162.562L235.028 163.455L235.995 163.2ZM248.195 180L247.645 180.835L248.195 180ZM320.595 207.8C316.631 207.8 313.078 206.843 309.91 204.943L308.881 206.657C312.379 208.757 316.293 209.8 320.595 209.8V207.8ZM309.884 204.927C306.699 203.144 304.086 200.661 302.038 197.461L300.353 198.539C302.572 202.006 305.425 204.723 308.907 206.673L309.884 204.927ZM300.732 197.114C292.223 201.565 282.651 203.8 271.995 203.8V205.8C282.94 205.8 292.835 203.502 301.659 198.886L300.732 197.114ZM271.995 203.8C261.06 203.8 251.21 201.693 242.426 197.498L241.564 199.302C250.647 203.641 260.797 205.8 271.995 205.8V203.8ZM242.443 197.506C233.786 193.177 226.99 187.289 222.027 179.845L220.363 180.955C225.534 188.711 232.605 194.823 241.548 199.294L242.443 197.506ZM222.034 179.856C217.208 172.42 214.795 164.21 214.795 155.2H212.795C212.795 164.59 215.316 173.18 220.357 180.944L222.034 179.856ZM214.795 155.2V110.4H212.795V155.2H214.795ZM214.795 110.4C214.795 101.39 217.208 93.2496 222.03 85.9513L220.361 84.8487C215.316 92.4837 212.795 101.01 212.795 110.4H214.795ZM222.023 85.9615C226.983 78.652 233.776 72.8966 242.432 68.6998L241.559 66.9002C232.615 71.2367 225.541 77.2146 220.368 84.8385L222.023 85.9615ZM242.437 68.6971C251.218 64.372 261.065 62.2 271.995 62.2V60.2C260.793 60.2 250.639 62.428 241.553 66.9029L242.437 68.6971ZM271.995 62.2C282.926 62.2 292.703 64.3721 301.348 68.6944L302.243 66.9056C293.287 62.4279 283.198 60.2 271.995 60.2V62.2ZM301.364 68.7023C310.154 72.9002 317.01 78.6556 321.968 85.9615L323.623 84.8385C318.447 77.211 311.304 71.2331 302.226 66.8976L301.364 68.7023ZM321.968 85.9615C326.92 93.2591 329.395 101.396 329.395 110.4H331.395C331.395 101.004 328.804 92.4743 323.623 84.8385L321.968 85.9615ZM329.395 110.4V155.2H331.395V110.4H329.395ZM329.395 155.2C329.395 161.593 328.092 167.581 325.489 173.178L327.302 174.022C330.032 168.152 331.395 161.874 331.395 155.2H329.395ZM325.481 173.196C323.005 178.798 319.491 183.614 314.932 187.651L316.258 189.149C321.033 184.919 324.719 179.868 327.31 174.004L325.481 173.196ZM314.81 189.02C316.916 191.687 319.584 193.72 322.797 195.117L323.594 193.283C320.673 192.013 318.274 190.179 316.38 187.78L314.81 189.02ZM322.831 195.131C326.05 196.391 329.535 196.874 333.269 196.597L333.121 194.603C329.656 194.859 326.474 194.409 323.56 193.269L322.831 195.131ZM332.195 195.6C332.195 200 331.158 203.023 329.288 204.893L330.702 206.307C333.099 203.91 334.195 200.267 334.195 195.6H332.195ZM329.266 204.916C327.527 206.77 324.714 207.8 320.595 207.8V209.8C325.01 209.8 328.463 208.696 330.725 206.284L329.266 204.916ZM303.479 172.53C307.993 168.298 310.195 162.408 310.195 155H308.195C308.195 161.992 306.131 167.302 302.111 171.07L303.479 172.53ZM310.195 155V110.8H308.195V155H310.195ZM310.195 110.8C310.195 101.067 306.753 93.2423 299.839 87.4343L298.552 88.9657C304.971 94.3577 308.195 101.599 308.195 110.8H310.195ZM299.846 87.4407C293.077 81.6385 283.75 78.8 271.995 78.8V80.8C283.44 80.8 292.247 83.5615 298.545 88.9593L299.846 87.4407ZM271.995 78.8C260.239 78.8 250.851 81.639 243.952 87.4343L245.239 88.9657C251.673 83.561 260.552 80.8 271.995 80.8V78.8ZM243.945 87.4407C237.166 93.2512 233.795 101.074 233.795 110.8H235.795C235.795 101.592 238.958 94.3488 245.246 88.9593L243.945 87.4407ZM233.795 110.8V147.4H235.795V110.8H233.795ZM235.099 148.353C241.298 146.374 246.793 145.4 251.595 145.4V143.4C246.531 143.4 240.826 144.426 234.491 146.447L235.099 148.353ZM251.595 145.4C262.398 145.4 271.697 147.507 279.525 151.682L280.466 149.918C272.294 145.559 262.659 143.4 251.595 143.4V145.4ZM279.542 151.691C287.493 155.732 294.979 162.605 301.982 172.382L303.608 171.218C296.478 161.262 288.764 154.135 280.448 149.909L279.542 151.691ZM271.995 187.2C278.77 187.2 285.026 186.116 290.751 183.934L290.039 182.066C284.565 184.151 278.554 185.2 271.995 185.2V187.2ZM291.235 182.457C285.587 173.716 279.674 167.629 273.466 164.318L272.525 166.082C278.317 169.171 284.004 174.951 289.555 183.543L291.235 182.457ZM273.474 164.322C267.418 161.018 259.772 159.4 250.595 159.4V161.4C259.552 161.4 266.84 162.982 272.516 166.078L273.474 164.322ZM250.595 159.4C246.056 159.4 241.076 160.362 235.665 162.256L236.326 164.144C241.581 162.304 246.335 161.4 250.595 161.4V159.4ZM235.028 163.455C236.96 170.767 241.179 176.57 247.645 180.835L248.746 179.165C242.678 175.163 238.764 169.767 236.962 162.945L235.028 163.455ZM247.645 180.835C254.115 185.102 262.254 187.2 271.995 187.2V185.2C262.537 185.2 254.809 183.164 248.746 179.165L247.645 180.835Z" fill="#F9FFFA"/>
</g>
<defs>
<clipPath id="clip0_581_978">
<rect width="409" height="242" rx="10" fill="white"/>
</clipPath>
</defs>
</svg>
