<svg width="556" height="329" viewBox="0 0 556 329" fill="none" xmlns="http://www.w3.org/2000/svg">
<rect width="556" height="329" fill="#F38C23"/>
<path d="M360.13 109.77C359.302 110.23 357.769 110.46 355.53 110.46C353.813 110.46 352.663 109.969 352.08 108.988L346.008 99.052C345.456 98.132 344.996 97.488 344.628 97.12C344.291 96.752 343.907 96.5067 343.478 96.384C343.049 96.2613 342.405 96.2 341.546 96.2H341.224V110H334.14V77.8H341.224V91.508H343.294L352.264 77.8H359.762L349.228 93.21C350.485 94.0993 351.62 95.418 352.632 97.166L360.13 109.77ZM398.858 103.882C398.858 105.293 398.904 106.397 398.996 107.194C399.119 107.991 399.303 108.666 399.548 109.218C398.935 109.525 398.199 109.77 397.34 109.954C396.482 110.138 395.669 110.23 394.902 110.23C394.013 110.23 393.354 110.015 392.924 109.586C392.495 109.157 392.219 108.436 392.096 107.424C391.207 108.405 390.118 109.157 388.83 109.678C387.573 110.199 386.193 110.46 384.69 110.46C382.022 110.46 379.983 109.739 378.572 108.298C377.162 106.826 376.456 104.71 376.456 101.95V84.7H383.264V101.628C383.264 103.253 383.51 104.419 384 105.124C384.522 105.799 385.396 106.136 386.622 106.136C388.8 106.136 390.594 105.032 392.004 102.824V84.7H398.858V103.882ZM417.391 73.614H424.199V110H417.391V73.614ZM470.226 84.24C472.648 84.24 474.55 84.9607 475.93 86.402C477.34 87.8127 478.046 89.7753 478.046 92.29V110H471.192V92.428C471.192 90.9253 470.977 89.9133 470.548 89.392C470.149 88.84 469.367 88.564 468.202 88.564C466.454 88.564 464.982 89.3307 463.786 90.864V91.416V110H456.978V91.968C456.978 90.68 456.794 89.7907 456.426 89.3C456.088 88.8093 455.444 88.564 454.494 88.564C452.838 88.564 451.166 89.5607 449.48 91.554V110H442.672V93.762C442.672 89.4073 442.488 86.724 442.12 85.712C442.702 85.3747 443.438 85.0987 444.328 84.884C445.217 84.6387 446.03 84.516 446.766 84.516C447.594 84.516 448.207 84.7613 448.606 85.252C449.035 85.712 449.311 86.5093 449.434 87.644C450.538 86.448 451.688 85.5893 452.884 85.068C454.08 84.516 455.414 84.24 456.886 84.24C458.296 84.24 459.523 84.5313 460.566 85.114C461.608 85.666 462.406 86.4787 462.958 87.552C464.675 85.344 467.098 84.24 470.226 84.24ZM496.957 84.7H503.765V110H496.957V84.7ZM500.039 80.054C497.647 80.054 496.451 78.858 496.451 76.466V75.776C496.451 73.384 497.647 72.188 500.039 72.188H500.683C503.075 72.188 504.271 73.384 504.271 75.776V76.466C504.271 78.858 503.075 80.054 500.683 80.054H500.039ZM347.572 178.46C342.696 178.46 338.939 177.034 336.302 174.182C333.695 171.33 332.392 167.251 332.392 161.946C332.392 158.481 332.99 155.506 334.186 153.022C335.413 150.538 337.161 148.637 339.43 147.318C341.699 145.999 344.413 145.34 347.572 145.34C349.504 145.34 351.359 145.677 353.138 146.352C354.947 146.996 356.373 147.87 357.416 148.974C357.263 149.955 356.879 150.875 356.266 151.734C355.653 152.593 355.085 153.022 354.564 153.022C354.135 153.022 353.736 152.884 353.368 152.608C352.325 151.811 351.344 151.243 350.424 150.906C349.535 150.569 348.553 150.4 347.48 150.4C342.267 150.4 339.66 154.249 339.66 161.946C339.66 169.582 342.267 173.4 347.48 173.4C348.86 173.4 350.179 173.124 351.436 172.572C352.724 172.02 353.843 171.223 354.794 170.18C355.499 170.517 356.067 170.993 356.496 171.606C356.925 172.189 357.14 172.802 357.14 173.446C357.14 174.335 356.695 175.163 355.806 175.93C354.947 176.697 353.782 177.31 352.31 177.77C350.838 178.23 349.259 178.46 347.572 178.46ZM394.94 168.478C394.94 170.993 395.032 172.802 395.216 173.906C395.431 175.01 395.845 175.961 396.458 176.758C395.814 177.218 394.986 177.601 393.974 177.908C392.962 178.184 392.042 178.322 391.214 178.322C390.447 178.322 389.834 178.046 389.374 177.494C388.914 176.942 388.577 176.068 388.362 174.872C387.534 176.16 386.553 177.08 385.418 177.632C384.283 178.184 382.811 178.46 381.002 178.46C378.763 178.46 376.954 177.862 375.574 176.666C374.194 175.439 373.504 173.845 373.504 171.882C373.504 169.122 374.654 167.067 376.954 165.718C379.285 164.338 383.011 163.51 388.132 163.234V160.842C388.132 159.585 387.795 158.649 387.12 158.036C386.476 157.423 385.479 157.116 384.13 157.116C383.149 157.116 382.167 157.315 381.186 157.714C380.235 158.082 379.055 158.741 377.644 159.692C377.491 159.815 377.276 159.876 377 159.876C376.448 159.876 375.85 159.508 375.206 158.772C374.593 158.036 374.041 157.07 373.55 155.874C374.746 154.831 376.417 153.973 378.564 153.298C380.741 152.593 382.888 152.24 385.004 152.24C388.193 152.24 390.647 152.991 392.364 154.494C394.081 155.966 394.94 158.082 394.94 160.842V168.478ZM383.394 174.044C384.314 174.044 385.157 173.722 385.924 173.078C386.721 172.434 387.457 171.437 388.132 170.088V166.684C385.587 166.776 383.655 167.205 382.336 167.972C381.048 168.708 380.404 169.766 380.404 171.146C380.404 172.035 380.68 172.741 381.232 173.262C381.784 173.783 382.505 174.044 383.394 174.044ZM421.499 178.46C418.493 178.46 416.117 178 414.369 177.08C412.651 176.16 411.793 174.979 411.793 173.538C411.793 172.679 412.084 171.959 412.667 171.376C413.28 170.763 414.154 170.425 415.289 170.364C415.933 171.591 416.761 172.511 417.773 173.124C418.815 173.737 420.119 174.044 421.683 174.044C424.381 174.044 425.731 173.032 425.731 171.008C425.731 170.18 425.347 169.551 424.581 169.122C423.814 168.693 422.557 168.187 420.809 167.604C419.03 167.021 417.558 166.454 416.393 165.902C415.258 165.35 414.277 164.553 413.449 163.51C412.621 162.437 412.207 161.057 412.207 159.37C412.207 157.929 412.651 156.671 413.541 155.598C414.461 154.494 415.657 153.666 417.129 153.114C418.631 152.531 420.257 152.24 422.005 152.24C424.243 152.24 426.206 152.669 427.893 153.528C429.579 154.387 430.898 155.537 431.849 156.978C431.45 157.745 430.898 158.419 430.193 159.002C429.518 159.554 428.905 159.83 428.353 159.83C428.046 159.83 427.785 159.784 427.571 159.692C427.356 159.569 427.141 159.385 426.927 159.14C425.547 157.423 423.967 156.564 422.189 156.564C421.023 156.564 420.119 156.794 419.475 157.254C418.861 157.683 418.555 158.343 418.555 159.232C418.555 160.183 418.969 160.903 419.797 161.394C420.655 161.885 421.989 162.391 423.799 162.912C425.516 163.372 426.927 163.863 428.031 164.384C429.165 164.875 430.116 165.626 430.883 166.638C431.68 167.619 432.079 168.923 432.079 170.548C432.079 173.093 431.159 175.056 429.319 176.436C427.509 177.785 424.903 178.46 421.499 178.46ZM462.985 173.538C463.323 173.63 463.583 173.829 463.767 174.136C463.951 174.443 464.043 174.811 464.043 175.24C464.043 175.884 463.844 176.405 463.445 176.804C462.955 177.295 462.142 177.693 461.007 178C459.903 178.307 458.677 178.46 457.327 178.46C455.211 178.46 453.509 177.877 452.221 176.712C450.933 175.516 450.289 173.937 450.289 171.974V157.024H446.425V152.7H450.289V145.8H457.097V152.7H461.881V157.024H457.097V171.376C457.097 172.449 457.266 173.216 457.603 173.676C457.971 174.105 458.6 174.32 459.489 174.32C460.471 174.32 461.636 174.059 462.985 173.538Z" fill="white"/>
<g filter="url(#filter0_di_686_273)">
<path fill-rule="evenodd" clip-rule="evenodd" d="M160.905 57.1283C160.67 57.1501 160.431 57.206 160.191 57.2986C160.427 57.2401 160.665 57.1834 160.905 57.1283Z" fill="#D9D9D9"/>
<path d="M76.1944 230.555C43.5343 215.946 47.7539 182.732 53.9462 167.95C56.4936 167.726 60.3969 166.878 65.0087 165.106C55.835 161.889 22.4967 174.841 27.047 203.988C29.3694 218.865 38.027 244.741 76.1944 230.555Z" fill="#FEB023"/>
<path d="M137.377 75.0954C135.355 80.0309 132.38 85.7934 128.871 91.9012C124.309 99.8415 118.847 108.365 113.408 116.414C105.766 127.723 98.1714 138.095 93.1902 144.592C84.0356 155.655 73.3603 161.896 65.0087 165.106C60.3969 166.878 56.4936 167.726 53.9462 167.95C47.7539 182.732 43.5343 215.946 76.1944 230.555C80.214 227.602 89.1381 224.217 98.9801 222.559C110.798 220.567 126.477 220.511 145.818 225.271C158.333 228.35 172.381 233.446 187.909 241.337L215.571 236.732C214.162 236.921 210.918 236.715 208.617 234.649C198.301 225.385 188.449 203.521 180.065 178.783C174.439 162.183 169.473 144.289 165.471 128.041C162.244 114.938 159.643 102.905 157.828 93.4831C152.848 67.9894 156.649 58.6626 160.191 57.2986C145.483 60.9404 139.304 71.0558 137.377 75.0954Z" fill="#0C0D20"/>
<path d="M98.9801 222.559C89.1381 224.217 80.214 227.602 76.1944 230.555C77.4634 249.326 90.8467 264.895 97.3797 270.333C109.529 281.166 116.564 271.613 118.563 265.482C105.257 258.847 102.91 236.442 104.57 232.136C95.739 230.527 97.1638 225.081 98.9801 222.559Z" fill="#0C0D20"/>
<path d="M180.024 78.1889C176.174 69.6152 168.938 57.5586 160.905 57.1283C160.665 57.1834 160.427 57.2401 160.191 57.2986C156.649 58.6626 152.848 67.9894 157.828 93.4831C159.643 102.905 162.244 114.938 165.471 128.041C169.473 144.289 174.439 162.183 180.065 178.783C188.449 203.521 198.301 225.385 208.617 234.649C210.918 236.715 214.162 236.921 215.571 236.732C223.877 235.62 220.581 198.027 211.237 159.542C208.417 147.928 205.046 136.232 201.276 125.433C198.633 117.863 195.795 110.733 192.813 104.382C190.248 98.9183 184.099 86.0301 180.024 78.1889Z" fill="#FEB023"/>
<path d="M160.905 57.1283C168.938 57.5586 176.174 69.6152 180.024 78.1889C184.099 86.0301 190.248 98.9183 192.813 104.382C195.795 110.733 198.633 117.863 201.276 125.433C205.046 136.232 208.417 147.928 211.237 159.542C220.581 198.027 223.877 235.62 215.571 236.732M160.905 57.1283C160.665 57.1834 160.427 57.2401 160.191 57.2986M160.905 57.1283C160.67 57.1501 160.431 57.206 160.191 57.2986M76.1944 230.555C43.5343 215.946 47.7539 182.732 53.9462 167.95C56.4936 167.726 60.3969 166.878 65.0087 165.106M76.1944 230.555C38.027 244.741 29.3694 218.865 27.047 203.988C22.4967 174.841 55.835 161.889 65.0087 165.106M76.1944 230.555C80.214 227.603 89.1381 224.217 98.9801 222.559M76.1944 230.555C77.4634 249.326 90.8467 264.895 97.3797 270.333C109.529 281.166 116.564 271.613 118.563 265.482C105.257 258.847 102.91 236.442 104.57 232.136C95.739 230.527 97.1638 225.081 98.9801 222.559M215.571 236.732C214.162 236.921 210.918 236.715 208.617 234.649C198.301 225.385 188.449 203.521 180.065 178.783C174.439 162.183 169.473 144.289 165.471 128.041C162.244 114.938 159.643 102.905 157.828 93.4831C152.848 67.9894 156.649 58.6626 160.191 57.2986M215.571 236.732L187.909 241.337C172.381 233.446 158.333 228.35 145.818 225.271C126.477 220.511 110.798 220.567 98.9801 222.559M65.0087 165.106C73.3603 161.896 84.0356 155.655 93.1902 144.592C98.1714 138.095 105.766 127.723 113.408 116.414C118.847 108.365 124.309 99.8415 128.871 91.9012C132.38 85.7934 135.355 80.0309 137.377 75.0954C139.304 71.0558 145.483 60.9404 160.191 57.2986" stroke="#F9FFFA" stroke-width="3" stroke-linejoin="round"/>
<path d="M164.927 122.474C177.431 115.356 205.846 108.334 219.467 137.188C223.126 151.289 219.616 179.917 181.316 180.101C176.583 170.011 167.681 144.057 164.927 122.474Z" fill="#0C0D20" stroke="#F9FFFA"/>
<path d="M225.845 72.9644L246.232 48.3095M244.055 129.663L271.756 128.303M253.132 188.867L280.714 206.025" stroke="#FEB023" stroke-width="4" stroke-linecap="round"/>
</g>
<defs>
<filter id="filter0_di_686_273" x="0" y="46.3096" width="300.24" height="260.931" filterUnits="userSpaceOnUse" color-interpolation-filters="sRGB">
<feFlood flood-opacity="0" result="BackgroundImageFix"/>
<feColorMatrix in="SourceAlpha" type="matrix" values="0 0 0 0 0 0 0 0 0 0 0 0 0 0 0 0 0 0 127 0" result="hardAlpha"/>
<feOffset dx="13" dy="13"/>
<feGaussianBlur stdDeviation="1.5"/>
<feComposite in2="hardAlpha" operator="out"/>
<feColorMatrix type="matrix" values="0 0 0 0 0.721569 0 0 0 0 0.847059 0 0 0 0 0.701961 0 0 0 1 0"/>
<feBlend mode="normal" in2="BackgroundImageFix" result="effect1_dropShadow_686_273"/>
<feBlend mode="normal" in="SourceGraphic" in2="effect1_dropShadow_686_273" result="shape"/>
<feColorMatrix in="SourceAlpha" type="matrix" values="0 0 0 0 0 0 0 0 0 0 0 0 0 0 0 0 0 0 127 0" result="hardAlpha"/>
<feOffset dx="16" dy="4"/>
<feGaussianBlur stdDeviation="2"/>
<feComposite in2="hardAlpha" operator="arithmetic" k2="-1" k3="1"/>
<feColorMatrix type="matrix" values="0 0 0 0 0 0 0 0 0 0 0 0 0 0 0 0 0 0 0.25 0"/>
<feBlend mode="normal" in2="shape" result="effect2_innerShadow_686_273"/>
</filter>
</defs>
</svg>
